<svg xmlns="http://www.w3.org/2000/svg" viewBox="0 0 167.75 30.22"><defs><style>.cls-1{fill:#fff;}</style></defs><g id="Layer_2" data-name="Layer 2"><g id="Layer_1-2" data-name="Layer 1"><path class="cls-1" d="M8.49,13.21l.63-4.32c.16-1.07.38-2.44.67-3.93h0C9.19,6.34,8.58,7.73,8.08,8.77L6,13H4.37L4.05,8.79C4,7.76,3.9,6.37,3.88,5h0C3.55,6.36,3.25,7.83,3,8.89L2,13.21H0L2.68,2.58H5.43l.3,4.34c0,.94.14,2.11.13,3.17h.06C6.28,9,6.79,7.83,7.21,6.92l2-4.34H12L10.56,13.21Z" transform="translate(0 -2.09)"/><path class="cls-1" d="M15,5.49,15.37,9c.09.77.15,1.32.19,1.83h0c.17-.52.33-1,.65-1.85l1.33-3.45h2.27l-2.68,5.7a14.44,14.44,0,0,1-2.85,4.33,5,5,0,0,1-2.13,1.19l-.59-1.85a5.14,5.14,0,0,0,1.22-.61A3.88,3.88,0,0,0,14,12.94a.48.48,0,0,0,.05-.36L12.74,5.49Z" transform="translate(0 -2.09)"/><path class="cls-1" d="M19.47,13.21l.91-4.79c.2-1.08.3-2.25.39-2.93h1.88c0,.48-.07,1-.13,1.49h.05a2.73,2.73,0,0,1,2.3-1.65l.39,0L24.83,7.5l-.34,0c-1.27,0-2,1.2-2.26,2.65l-.58,3.08Z" transform="translate(0 -2.09)"/><path class="cls-1" d="M24.93,13.21,26.4,5.49h2.18l-1.47,7.72Zm1.81-9.75A1.25,1.25,0,0,1,28,2.19a1,1,0,0,1,1.08,1.09,1.23,1.23,0,0,1-1.28,1.26A1,1,0,0,1,26.74,3.46Z" transform="translate(0 -2.09)"/><path class="cls-1" d="M33.6,13.21c0-.44,0-.93.09-1.46h0a2.76,2.76,0,0,1-2.41,1.62c-1.31,0-2.14-1-2.14-2.58,0-2.52,1.56-5.46,5.21-5.46a8.55,8.55,0,0,1,2.4.36l-.83,4.12a18.94,18.94,0,0,0-.31,3.4ZM34.27,7A2.44,2.44,0,0,0,33.72,7c-1.42,0-2.38,2-2.38,3.38,0,.73.24,1.24.83,1.24s1.37-.8,1.7-2.55Z" transform="translate(0 -2.09)"/><path class="cls-1" d="M45.59,2.09,44,10.35a22.88,22.88,0,0,0-.37,2.86H41.71L41.82,12h0a2.75,2.75,0,0,1-2.32,1.38c-1.25,0-2.2-1-2.2-2.76,0-2.69,1.79-5.28,4.55-5.28a2.55,2.55,0,0,1,.95.18l.66-3.42ZM42.46,7.23A1.27,1.27,0,0,0,41.68,7c-1.29,0-2.17,1.83-2.17,3.25,0,.86.33,1.36.94,1.36s1.27-.66,1.55-1.94Z" transform="translate(0 -2.09)"/><path class="cls-1" d="M50.07,13.21l-1-10.63h2.29l.3,5.15c.07,1.08.1,2.17.13,3.19h0c.34-1,.8-2.14,1.27-3.19l2.24-5.15h2.43L52.56,13.21Z" transform="translate(0 -2.09)"/><path class="cls-1" d="M60.76,13.21c0-.44.05-.93.09-1.46h0a2.76,2.76,0,0,1-2.41,1.62c-1.31,0-2.14-1-2.14-2.58,0-2.52,1.56-5.46,5.21-5.46a8.55,8.55,0,0,1,2.4.36L63,9.81a18.94,18.94,0,0,0-.31,3.4ZM61.43,7A2.38,2.38,0,0,0,60.88,7c-1.42,0-2.38,2-2.38,3.38,0,.73.24,1.24.83,1.24s1.37-.8,1.7-2.55Z" transform="translate(0 -2.09)"/><path class="cls-1" d="M64.24,13.21l.91-4.79c.2-1.08.31-2.25.39-2.93h1.89c0,.48-.08,1-.14,1.49h.06a2.73,2.73,0,0,1,2.29-1.65l.39,0L69.61,7.5l-.35,0c-1.27,0-2,1.2-2.26,2.65l-.58,3.08Z" transform="translate(0 -2.09)"/><path class="cls-1" d="M69.7,13.21l1.47-7.72h2.19l-1.47,7.72Zm1.81-9.75a1.25,1.25,0,0,1,1.24-1.27,1,1,0,0,1,1.08,1.09,1.22,1.22,0,0,1-1.28,1.26A1,1,0,0,1,71.51,3.46Z" transform="translate(0 -2.09)"/><path class="cls-1" d="M78.37,13.21c0-.44.06-.93.09-1.46h0A2.75,2.75,0,0,1,76,13.37c-1.3,0-2.13-1-2.13-2.58,0-2.52,1.56-5.46,5.21-5.46a8.47,8.47,0,0,1,2.39.36l-.82,4.12a19,19,0,0,0-.32,3.4ZM79.05,7A2.53,2.53,0,0,0,78.49,7c-1.42,0-2.37,2-2.38,3.38,0,.73.24,1.24.83,1.24s1.38-.8,1.71-2.55Z" transform="translate(0 -2.09)"/><path class="cls-1" d="M86.08,2.09l-.89,4.34h0a2.78,2.78,0,0,1,2.2-1.1c1.54,0,2.11,1.35,2.11,2.55,0,2.62-1.62,5.49-4.85,5.49-1.68,0-2.52-.72-2.51-2A6.64,6.64,0,0,1,82.32,10L83.9,2.09Zm-1.6,8a3.67,3.67,0,0,0-.09.84.73.73,0,0,0,.78.8c1.24,0,2.08-2.06,2.08-3.33,0-.72-.23-1.28-.87-1.28s-1.45.8-1.69,2Z" transform="translate(0 -2.09)"/><path class="cls-1" d="M90.05,13.21,92.17,2.09h2.19L92.24,13.21Z" transform="translate(0 -2.09)"/><path class="cls-1" d="M100.09,12.8a6.39,6.39,0,0,1-2.69.55,2.84,2.84,0,0,1-3.13-3.15c0-2.32,1.57-4.87,4.26-4.87A2.26,2.26,0,0,1,101,7.58c0,2-1.85,2.75-4.66,2.67a1.59,1.59,0,0,0,.23.83,1.57,1.57,0,0,0,1.35.58,4.39,4.39,0,0,0,2-.46ZM98.26,7a1.88,1.88,0,0,0-1.68,1.67c1.55,0,2.43-.26,2.43-1A.66.66,0,0,0,98.26,7Z" transform="translate(0 -2.09)"/><path class="cls-1" d="M111.26,13a6.2,6.2,0,0,1-2.4.38,4,4,0,0,1-4.21-4.24,6.66,6.66,0,0,1,2.48-5.49,5.86,5.86,0,0,1,3.68-1.19,4.54,4.54,0,0,1,2,.38l-.6,1.81a4.13,4.13,0,0,0-1.63-.29,3.26,3.26,0,0,0-2.18.85A4.87,4.87,0,0,0,107,8.79c0,1.6.78,2.67,2.41,2.67a4.74,4.74,0,0,0,1.73-.3Z" transform="translate(0 -2.09)"/><path class="cls-1" d="M119.82,8.37c0,2.7-1.74,5-4.32,5a2.84,2.84,0,0,1-3-3c0-2.64,1.74-5,4.36-5A2.83,2.83,0,0,1,119.82,8.37Zm-5.09,1.91c0,.8.32,1.42,1.06,1.42,1.15,0,1.8-2.06,1.8-3.39,0-.66-.26-1.32-1-1.32C115.39,7,114.72,9,114.73,10.28Z" transform="translate(0 -2.09)"/><path class="cls-1" d="M120.38,13.21l1-5.21c.19-1,.31-1.81.42-2.51h1.91l-.13,1.19h0a3,3,0,0,1,2.51-1.35,1.75,1.75,0,0,1,1.84,2,8.32,8.32,0,0,1-.15,1.35l-.86,4.54h-2.18l.83-4.43a4.71,4.71,0,0,0,.09-.85c0-.49-.17-.83-.68-.83s-1.45.85-1.75,2.48l-.69,3.63Z" transform="translate(0 -2.09)"/><path class="cls-1" d="M133.92,13a4.94,4.94,0,0,1-1.95.34,2.84,2.84,0,0,1-3-3,4.78,4.78,0,0,1,4.77-5,3.94,3.94,0,0,1,1.39.22l-.54,1.71a2.46,2.46,0,0,0-.9-.16A2.72,2.72,0,0,0,131.23,10c0,1,.58,1.56,1.36,1.56a3.5,3.5,0,0,0,1.36-.28Z" transform="translate(0 -2.09)"/><path class="cls-1" d="M140.91,12.8a6.34,6.34,0,0,1-2.68.55,2.84,2.84,0,0,1-3.13-3.15c0-2.32,1.57-4.87,4.26-4.87a2.26,2.26,0,0,1,2.5,2.25c0,2-1.85,2.75-4.66,2.67a1.67,1.67,0,0,0,.22.83,1.59,1.59,0,0,0,1.36.58,4.38,4.38,0,0,0,2-.46ZM139.09,7a1.88,1.88,0,0,0-1.68,1.67c1.55,0,2.43-.26,2.43-1A.66.66,0,0,0,139.09,7Z" transform="translate(0 -2.09)"/><path class="cls-1" d="M141.59,16.31l1.51-8c.17-.91.34-2.07.44-2.85h1.93l-.13,1.12h0a2.87,2.87,0,0,1,2.31-1.28c1.58,0,2.23,1.3,2.23,2.77,0,2.65-1.66,5.27-4.22,5.27a2.81,2.81,0,0,1-1.29-.28h0l-.61,3.22Zm3.11-4.9a1.29,1.29,0,0,0,.89.31c1.21,0,2-2,2-3.4,0-.59-.2-1.2-.87-1.2s-1.46.91-1.71,2.25Z" transform="translate(0 -2.09)"/><path class="cls-1" d="M154.7,3.36l-.4,2.13h1.59l-.31,1.63H154l-.56,2.9a5.13,5.13,0,0,0-.11.89.57.57,0,0,0,.64.64,4,4,0,0,0,.59,0l-.25,1.69a4.46,4.46,0,0,1-1.29.16c-1.31,0-1.94-.69-1.94-1.67a6.62,6.62,0,0,1,.16-1.36l.62-3.22h-1l.31-1.63h1l.31-1.61Z" transform="translate(0 -2.09)"/><path class="cls-1" d="M2.28,21.68a13.61,13.61,0,0,1,2.57-.23,4.35,4.35,0,0,1,2.56.61,2.14,2.14,0,0,1,1.06,1.87,2.74,2.74,0,0,1-2.11,2.58v0A2.28,2.28,0,0,1,8,28.86,3,3,0,0,1,6.6,31.33a6.59,6.59,0,0,1-3.81.88A13.81,13.81,0,0,1,.32,32Zm.45,8.79a5.87,5.87,0,0,0,.76,0c1.2,0,2.2-.58,2.2-1.74,0-1-.76-1.4-1.77-1.4h-.6Zm.92-4.71h.61c1.22,0,2-.58,2-1.52,0-.71-.51-1.12-1.35-1.12a3.22,3.22,0,0,0-.79.07Z" transform="translate(0 -2.09)"/><path class="cls-1" d="M16.45,27.31c0,2.7-1.74,5-4.32,5a2.84,2.84,0,0,1-3-3c0-2.65,1.74-5,4.36-5A2.83,2.83,0,0,1,16.45,27.31Zm-5.09,1.91c0,.8.32,1.42,1.06,1.42,1.15,0,1.8-2.06,1.8-3.39,0-.66-.26-1.32-1-1.32C12,25.93,11.35,28,11.36,29.22Z" transform="translate(0 -2.09)"/><path class="cls-1" d="M17,32.15,19.13,21h2.19L19.2,32.15Z" transform="translate(0 -2.09)"/><path class="cls-1" d="M29.52,21,28,29.29a24.92,24.92,0,0,0-.37,2.86H25.64l.11-1.22h0a2.77,2.77,0,0,1-2.33,1.38c-1.25,0-2.19-1-2.19-2.76,0-2.69,1.79-5.28,4.54-5.28a2.55,2.55,0,0,1,1,.18L27.35,21Zm-3.13,5.14a1.23,1.23,0,0,0-.78-.24c-1.29,0-2.17,1.83-2.17,3.25,0,.86.33,1.36.94,1.36s1.28-.66,1.55-1.94Z" transform="translate(0 -2.09)"/><path class="cls-1" d="M32.4,29.82a4.36,4.36,0,0,0,2.2.58c.88,0,1.63-.44,1.63-1.27,0-.64-.44-1-1.32-1.59A3.37,3.37,0,0,1,33,24.8c0-2.1,1.73-3.43,4-3.43a4.5,4.5,0,0,1,2.24.47l-.66,1.83a3.71,3.71,0,0,0-1.73-.41c-1,0-1.56.53-1.56,1.18s.52,1,1.41,1.56a3.22,3.22,0,0,1,1.86,2.74c0,2.31-1.82,3.55-4.08,3.55a4.89,4.89,0,0,1-2.72-.65Z" transform="translate(0 -2.09)"/><path class="cls-1" d="M45.45,31.74a6.39,6.39,0,0,1-2.69.55,2.84,2.84,0,0,1-3.12-3.15c0-2.32,1.56-4.87,4.25-4.87a2.26,2.26,0,0,1,2.5,2.25c0,2-1.85,2.75-4.66,2.67A1.53,1.53,0,0,0,42,30a1.58,1.58,0,0,0,1.35.59,4.39,4.39,0,0,0,2-.46Zm-1.83-5.83a1.88,1.88,0,0,0-1.68,1.67c1.55,0,2.43-.26,2.43-1A.66.66,0,0,0,43.62,25.91Z" transform="translate(0 -2.09)"/><path class="cls-1" d="M46.72,32.15l1-5.21c.19-1,.31-1.81.41-2.51H50l-.12,1.2h0a2.94,2.94,0,0,1,2.48-1.36A1.54,1.54,0,0,1,54,25.65a3,3,0,0,1,2.5-1.38c1.12,0,1.74.74,1.74,2a8.71,8.71,0,0,1-.15,1.39l-.85,4.53H55.14l.8-4.33a5,5,0,0,0,.11-1c0-.47-.21-.8-.67-.8-.66,0-1.36.91-1.65,2.45L53,32.15h-2.1l.82-4.34a5.66,5.66,0,0,0,.11-.95c0-.47-.16-.84-.65-.84-.65,0-1.41,1-1.69,2.47l-.67,3.66Z" transform="translate(0 -2.09)"/><path class="cls-1" d="M59,32.15l1.47-7.72h2.19l-1.47,7.72Zm1.81-9.75a1.25,1.25,0,0,1,1.24-1.27,1,1,0,0,1,1.08,1.09,1.22,1.22,0,0,1-1.28,1.26A1,1,0,0,1,60.81,22.4Z" transform="translate(0 -2.09)"/><path class="cls-1" d="M70.17,31.91a6.27,6.27,0,0,1-2.4.38,4,4,0,0,1-4.22-4.24A6.65,6.65,0,0,1,66,22.56a5.82,5.82,0,0,1,3.68-1.19,4.45,4.45,0,0,1,2,.38l-.6,1.81a4.07,4.07,0,0,0-1.62-.29,3.22,3.22,0,0,0-2.18.85,4.88,4.88,0,0,0-1.4,3.61c0,1.6.78,2.67,2.41,2.67a4.75,4.75,0,0,0,1.74-.3Z" transform="translate(0 -2.09)"/><path class="cls-1" d="M78.72,27.31c0,2.7-1.74,5-4.31,5a2.84,2.84,0,0,1-3-3c0-2.65,1.73-5,4.35-5A2.83,2.83,0,0,1,78.72,27.31Zm-5.09,1.91c0,.8.33,1.42,1.07,1.42,1.14,0,1.8-2.06,1.8-3.39,0-.66-.26-1.32-1-1.32C74.29,25.93,73.63,28,73.63,29.22Z" transform="translate(0 -2.09)"/><path class="cls-1" d="M79.28,32.15l1-5.21c.19-1,.31-1.81.41-2.51h1.91l-.12,1.19h0A3.05,3.05,0,0,1,85,24.27a1.74,1.74,0,0,1,1.84,2,9.39,9.39,0,0,1-.14,1.34l-.87,4.55H83.66l.84-4.43a4.71,4.71,0,0,0,.08-.85c0-.49-.17-.83-.68-.83s-1.44.85-1.75,2.48l-.68,3.63Z" transform="translate(0 -2.09)"/><path class="cls-1" d="M96.16,21l-1.57,8.26a22.88,22.88,0,0,0-.37,2.86H92.28l.1-1.22h0A2.75,2.75,0,0,1,90,32.31c-1.26,0-2.2-1-2.2-2.76,0-2.69,1.79-5.28,4.55-5.28a2.62,2.62,0,0,1,1,.18L94,21ZM93,26.17a1.22,1.22,0,0,0-.77-.24c-1.29,0-2.18,1.83-2.18,3.25,0,.86.34,1.36.94,1.36s1.28-.66,1.55-1.94Z" transform="translate(0 -2.09)"/><path class="cls-1" d="M101.88,31.74a6.34,6.34,0,0,1-2.68.55,2.84,2.84,0,0,1-3.13-3.15c0-2.32,1.57-4.87,4.26-4.87a2.26,2.26,0,0,1,2.5,2.25c0,2-1.85,2.75-4.66,2.67a1.35,1.35,0,0,0,1.58,1.41,4.32,4.32,0,0,0,2-.46Zm-1.82-5.83a1.88,1.88,0,0,0-1.68,1.67c1.55,0,2.43-.26,2.43-1A.66.66,0,0,0,100.06,25.91Z" transform="translate(0 -2.09)"/><path class="cls-1" d="M103.16,32.15l1-5.21c.18-1,.3-1.81.41-2.51h1.91l-.12,1.19h0a3.05,3.05,0,0,1,2.51-1.35,1.74,1.74,0,0,1,1.84,2,8.2,8.2,0,0,1-.15,1.34l-.86,4.55h-2.18l.84-4.43a5.83,5.83,0,0,0,.08-.85c0-.49-.17-.83-.68-.83s-1.45.85-1.75,2.48l-.69,3.63Z" transform="translate(0 -2.09)"/><path class="cls-1" d="M111.77,30.22a4.14,4.14,0,0,0,1.78.47c.62,0,1-.33,1-.75s-.24-.66-.9-1a2.39,2.39,0,0,1-1.43-2c0-1.54,1.31-2.63,3.23-2.63a4,4,0,0,1,1.82.36l-.51,1.56a3.05,3.05,0,0,0-1.35-.31c-.61,0-1,.28-1,.73s.29.6.83.9a2.57,2.57,0,0,1,1.56,2.08c0,1.75-1.41,2.7-3.37,2.7a4,4,0,0,1-2.13-.54Z" transform="translate(0 -2.09)"/><path class="cls-1" d="M123.63,31.74a6.34,6.34,0,0,1-2.68.55,2.84,2.84,0,0,1-3.13-3.15c0-2.32,1.57-4.87,4.26-4.87a2.26,2.26,0,0,1,2.5,2.25c0,2-1.85,2.75-4.66,2.67a1.35,1.35,0,0,0,1.58,1.41,4.38,4.38,0,0,0,2-.46Zm-1.82-5.83a1.88,1.88,0,0,0-1.68,1.67c1.54,0,2.43-.26,2.43-1A.66.66,0,0,0,121.81,25.91Z" transform="translate(0 -2.09)"/><path class="cls-1" d="M133.5,21l-1.57,8.26a22.88,22.88,0,0,0-.37,2.86h-1.94l.1-1.22h0a2.75,2.75,0,0,1-2.32,1.38c-1.26,0-2.2-1-2.2-2.76,0-2.69,1.79-5.28,4.55-5.28a2.62,2.62,0,0,1,.95.18l.65-3.42Zm-3.14,5.14a1.22,1.22,0,0,0-.77-.24c-1.29,0-2.17,1.83-2.17,3.25,0,.86.33,1.36.93,1.36s1.28-.66,1.55-1.94Z" transform="translate(0 -2.09)"/><path class="cls-1" d="M140.15,21.52l-2,10.63H136l2-10.63Z" transform="translate(0 -2.09)"/><path class="cls-1" d="M144.36,22.29l-.4,2.14h1.59l-.31,1.63h-1.6l-.56,2.9a5.13,5.13,0,0,0-.11.89.57.57,0,0,0,.64.64,4.16,4.16,0,0,0,.6,0L144,32.15a4.46,4.46,0,0,1-1.29.16c-1.31,0-1.94-.69-1.94-1.67a6.62,6.62,0,0,1,.16-1.36l.62-3.22h-1l.31-1.63h1l.31-1.61Z" transform="translate(0 -2.09)"/><path class="cls-1" d="M150,32.15c0-.44.06-.94.09-1.46h0a2.76,2.76,0,0,1-2.41,1.62c-1.3,0-2.14-1-2.14-2.58,0-2.52,1.56-5.46,5.22-5.46a8.47,8.47,0,0,1,2.39.36l-.83,4.12a19.81,19.81,0,0,0-.31,3.4Zm.68-6.17a2.53,2.53,0,0,0-.56-.06c-1.42,0-2.38,2-2.38,3.38,0,.73.24,1.24.83,1.24s1.38-.8,1.71-2.55Z" transform="translate(0 -2.09)"/><path class="cls-1" d="M153.4,32.15,155.53,21h2.18l-2.12,11.12Z" transform="translate(0 -2.09)"/><path class="cls-1" d="M157.36,32.15l1.47-7.72H161l-1.47,7.72Zm1.81-9.75a1.24,1.24,0,0,1,1.24-1.27,1,1,0,0,1,1.08,1.09,1.23,1.23,0,0,1-1.28,1.26A1,1,0,0,1,159.17,22.4Z" transform="translate(0 -2.09)"/><path class="cls-1" d="M166.54,32a4.94,4.94,0,0,1-1.95.34,2.83,2.83,0,0,1-3-3.05,4.77,4.77,0,0,1,4.77-5,3.83,3.83,0,0,1,1.38.22l-.53,1.71a2.54,2.54,0,0,0-.9-.16A2.71,2.71,0,0,0,163.86,29c0,1,.57,1.56,1.36,1.56a3.68,3.68,0,0,0,1.35-.28Z" transform="translate(0 -2.09)"/></g></g></svg>