<svg xmlns="http://www.w3.org/2000/svg" viewBox="0 0 256.8 130.15"><defs><style>.cls-1,.cls-3,.cls-4{font-size:18.09px;}.cls-1,.cls-2,.cls-3,.cls-4{fill:#fff;}.cls-1{font-family:TmonMonsoriBlack, TmonMonsori;}.cls-3{font-family:ISOCPEUR;}.cls-4{font-family:MaplestoryBold, Maplestory;}</style></defs><g id="Layer_2" data-name="Layer 2"><g id="Layer_1-2" data-name="Layer 1"><text class="cls-1" transform="translate(0 14.47)">Tmon몬소리 Black</text><path class="cls-2" d="M3.86,38.74a4,4,0,0,0,1.95.52,4.11,4.11,0,0,0,1.73-.34,2.85,2.85,0,0,0,1.19-1,2.4,2.4,0,0,0,.42-1.39,1.76,1.76,0,0,0-.42-1.2,3,3,0,0,0-1.06-.76c-.42-.19-1-.41-1.72-.66a19.35,19.35,0,0,1-2.09-.81,3.86,3.86,0,0,1-1.35-1.07A2.87,2.87,0,0,1,2,30.26a3,3,0,0,1,.52-1.75,3.43,3.43,0,0,1,1.44-1.2A4.81,4.81,0,0,1,6,26.87a4.32,4.32,0,0,1,2.11.55,5,5,0,0,1,1.7,1.43L9,29.46a4.1,4.1,0,0,0-1.34-1.19A3.35,3.35,0,0,0,6,27.83a3.27,3.27,0,0,0-2.12.68A2.16,2.16,0,0,0,3,30.26a1.89,1.89,0,0,0,.44,1.28,3.25,3.25,0,0,0,1.11.81c.44.19,1,.42,1.78.67a18.49,18.49,0,0,1,2,.81,3.57,3.57,0,0,1,1.3,1,2.62,2.62,0,0,1,.54,1.7,3.37,3.37,0,0,1-.56,1.9,3.79,3.79,0,0,1-1.57,1.29,5.43,5.43,0,0,1-2.3.46,5.18,5.18,0,0,1-2.43-.61,6.15,6.15,0,0,1-2-1.67l.82-.61A5.54,5.54,0,0,0,3.86,38.74Z"/><path class="cls-2" d="M15.18,39.56a4.69,4.69,0,0,1-1.84-1.83,5.45,5.45,0,0,1-.66-2.7V27h1.09v8a4.5,4.5,0,0,0,.52,2.18,3.64,3.64,0,0,0,1.46,1.5,4.45,4.45,0,0,0,4.21,0,3.7,3.7,0,0,0,1.46-1.5,4.5,4.5,0,0,0,.52-2.18V27H23v8a5.45,5.45,0,0,1-.66,2.7,4.76,4.76,0,0,1-1.84,1.83,5.38,5.38,0,0,1-2.68.66A5.34,5.34,0,0,1,15.18,39.56Z"/><path class="cls-2" d="M27,27V40.1H25.92V27Z"/><path class="cls-2" d="M39.11,28H34.93V40.1H33.84V28H29.7V27h9.41Z"/><path class="cls-2" d="M52.29,40.1H51.14L45.64,27h1.17L51.7,38.81,56.38,27h1.18Z"/><path class="cls-2" d="M66.57,40.1H65.48v-2a4.56,4.56,0,0,1-.84,1.13,3.51,3.51,0,0,1-1.11.73,3.34,3.34,0,0,1-1.29.26A4.23,4.23,0,0,1,60,39.62,4.07,4.07,0,0,1,58.49,38a5.51,5.51,0,0,1,0-4.8A4.11,4.11,0,0,1,60,31.53a4.23,4.23,0,0,1,2.22-.59,3.38,3.38,0,0,1,1.85.55A3.9,3.9,0,0,1,65.48,33V30.89h1.09Zm-2.71-1.33a3.49,3.49,0,0,0,1.2-1.32,4.05,4.05,0,0,0,0-3.75,3.49,3.49,0,0,0-1.2-1.32,3,3,0,0,0-1.62-.48,3,3,0,0,0-1.65.47,3.3,3.3,0,0,0-1.15,1.3,4.18,4.18,0,0,0-.42,1.9,4.12,4.12,0,0,0,.42,1.9,3.26,3.26,0,0,0,1.15,1.31,3,3,0,0,0,1.65.47A3,3,0,0,0,63.86,38.77Z"/><path class="cls-2" d="M71.19,31.43a3.5,3.5,0,0,1,2-.6v1a3,3,0,0,0-1.61.48,3.71,3.71,0,0,0-1.22,1.3,3.32,3.32,0,0,0-.46,1.71V40.1H68.77V30.89h1.09V33A3.52,3.52,0,0,1,71.19,31.43Z"/><path class="cls-2" d="M76.3,27.2a.72.72,0,0,1,.2.52.77.77,0,0,1-.2.54.75.75,0,0,1-1,0,.73.73,0,0,1-.21-.54.69.69,0,0,1,.21-.52.78.78,0,0,1,1,0Zm0,3.69V40.1H75.23V30.89Z"/><path class="cls-2" d="M87.17,40.1H86.08v-2a4.56,4.56,0,0,1-.84,1.13,3.51,3.51,0,0,1-1.11.73,3.33,3.33,0,0,1-1.28.26,4.24,4.24,0,0,1-2.23-.59A4.07,4.07,0,0,1,79.09,38a5.51,5.51,0,0,1,0-4.8,4.11,4.11,0,0,1,1.53-1.64,4.24,4.24,0,0,1,2.23-.59,3.35,3.35,0,0,1,1.84.55A3.9,3.9,0,0,1,86.08,33V30.89h1.09Zm-2.71-1.33a3.51,3.51,0,0,0,1.21-1.32,4.13,4.13,0,0,0,0-3.75,3.51,3.51,0,0,0-1.21-1.32,2.94,2.94,0,0,0-1.61-.48,3,3,0,0,0-1.66.47A3.3,3.3,0,0,0,80,33.67a4.18,4.18,0,0,0-.41,1.9,4.12,4.12,0,0,0,.41,1.9,3.26,3.26,0,0,0,1.15,1.31,3,3,0,0,0,1.66.47A2.94,2.94,0,0,0,84.46,38.77Z"/><path class="cls-2" d="M92.84,40a4.12,4.12,0,0,1-1.19-.72,3.67,3.67,0,0,1-.9-1.18v2H89.67V27h1.08v6a3.86,3.86,0,0,1,1.47-1.61,3.77,3.77,0,0,1,1.88-.51,4.32,4.32,0,0,1,2.26.6,4.18,4.18,0,0,1,1.55,1.65,5.51,5.51,0,0,1,0,4.84,4.12,4.12,0,0,1-1.56,1.67,4.44,4.44,0,0,1-2.27.59A3.62,3.62,0,0,1,92.84,40Zm2.94-1.2A3.24,3.24,0,0,0,97,37.46a4.5,4.5,0,0,0,0-3.84,3.09,3.09,0,0,0-1.18-1.32,3.24,3.24,0,0,0-1.72-.47,2.93,2.93,0,0,0-1.64.51,3.62,3.62,0,0,0-1.22,1.35,3.92,3.92,0,0,0-.45,1.85,4,4,0,0,0,.44,1.86,3.62,3.62,0,0,0,1.21,1.36,2.89,2.89,0,0,0,1.66.5A3.24,3.24,0,0,0,95.78,38.79Z"/><path class="cls-2" d="M101.35,27V40.1h-1.09V27Z"/><path class="cls-2" d="M111.47,34.82a9,9,0,0,1,0,1.15v0h-7.24a3.72,3.72,0,0,0,.51,1.64,3.22,3.22,0,0,0,1.14,1.12,3.07,3.07,0,0,0,1.56.4,3.19,3.19,0,0,0,1.93-.48,3.43,3.43,0,0,0,.92-1l0-.05.85.49a3.41,3.41,0,0,1-1.35,1.43,4.39,4.39,0,0,1-2.39.59,4.2,4.2,0,0,1-2.25-.59,4,4,0,0,1-1.52-1.64,5.63,5.63,0,0,1,0-4.81,4,4,0,0,1,1.52-1.65,4.29,4.29,0,0,1,2.25-.59,3.79,3.79,0,0,1,2,.49,3.63,3.63,0,0,1,1.14,1,5.48,5.48,0,0,1,.52,1l0,0A5.31,5.31,0,0,1,111.47,34.82ZM110,33.46a2.79,2.79,0,0,0-1-1.21,2.59,2.59,0,0,0-1.58-.44,3.06,3.06,0,0,0-1.58.42,3.17,3.17,0,0,0-1.15,1.15,3.81,3.81,0,0,0-.51,1.67l6.15,0A4.62,4.62,0,0,0,110,33.46Z"/><path class="cls-2" d="M123.4,39.14h6.89v1h-8V27h1.09Z"/><path class="cls-2" d="M133.89,27.2a.72.72,0,0,1,.2.52.77.77,0,0,1-.2.54.69.69,0,0,1-.52.21.7.7,0,0,1-.52-.21.73.73,0,0,1-.21-.54.69.69,0,0,1,.21-.52.73.73,0,0,1,.52-.2A.72.72,0,0,1,133.89,27.2Zm0,3.69V40.1h-1.09V30.89Z"/><path class="cls-2" d="M144.22,42a4,4,0,0,1-1.52,1.64,4.34,4.34,0,0,1-2.28.58,4.15,4.15,0,0,1-3.62-1.92l.87-.58a3.64,3.64,0,0,0,1.22,1.17,3.09,3.09,0,0,0,1.53.37,3.19,3.19,0,0,0,1.72-.47,3.11,3.11,0,0,0,1.14-1.31,4.59,4.59,0,0,0,.4-2V38a3.64,3.64,0,0,1-3.26,2.21,4.23,4.23,0,0,1-2.22-.59A3.92,3.92,0,0,1,136.68,38a5.1,5.1,0,0,1-.55-2.41,5,5,0,0,1,.55-2.38,3.92,3.92,0,0,1,1.52-1.63,4.23,4.23,0,0,1,2.22-.59,3.73,3.73,0,0,1,1.36.26,3.81,3.81,0,0,1,1.15.75,3.23,3.23,0,0,1,.75,1.09V30.89h1.08v8.72A5.21,5.21,0,0,1,144.22,42Zm-2.15-3.28a3.62,3.62,0,0,0,1.19-1.35,3.92,3.92,0,0,0,.44-1.83,3.75,3.75,0,0,0-.45-1.8,3.51,3.51,0,0,0-1.19-1.34,2.93,2.93,0,0,0-1.64-.5,3,3,0,0,0-1.65.47,3.24,3.24,0,0,0-1.14,1.29,4.22,4.22,0,0,0-.41,1.88,4.31,4.31,0,0,0,.41,1.9,3.13,3.13,0,0,0,1.14,1.32,3,3,0,0,0,1.65.47A2.92,2.92,0,0,0,142.07,38.74Z"/><path class="cls-2" d="M153,32.74a2.11,2.11,0,0,0-1.71-.82,2.4,2.4,0,0,0-1.42.45,3.3,3.3,0,0,0-1,1.21,3.78,3.78,0,0,0-.38,1.69V40.1h-1.08V27h1.08v5.75a3,3,0,0,1,1.08-1.29,2.91,2.91,0,0,1,1.75-.54,3.34,3.34,0,0,1,1.8.5,3.48,3.48,0,0,1,1.23,1.37,4.46,4.46,0,0,1,.44,2V40.1h-1.09V34.85A3.23,3.23,0,0,0,153,32.74Z"/><path class="cls-2" d="M156.25,30.91h5v1h-5Zm5,9a3.65,3.65,0,0,1-.5.15,3.39,3.39,0,0,1-.58.05,2.49,2.49,0,0,1-1.23-.3,2.16,2.16,0,0,1-.83-.84,2.44,2.44,0,0,1-.3-1.21V28.47h1.09v9.24a1.41,1.41,0,0,0,.35,1,1.18,1.18,0,0,0,.92.38,2.71,2.71,0,0,0,.83-.16l0,0,.28.94Z"/><text class="cls-3" transform="translate(0 67.23)">ISOCPEUR</text><text class="cls-4" transform="translate(1.51 124.51)">메이플스토리</text><path class="cls-2" d="M8.5,88.59c-.06-1.16-.14-2.72-.12-4h0c-.22,1.31-.55,2.81-.77,3.76L6.51,92.66H4.83l-1-4.28c-.23-1-.55-2.51-.74-3.83H3c0,1.33-.12,2.87-.19,4.07l-.2,4.24H.6l.88-12.19H4l1,4.41c.34,1.54.65,2.89.87,4.27h0c.18-1.36.45-2.73.77-4.27l1-4.41H10.1l.74,12.19H8.72Z"/><path class="cls-2" d="M14.16,84,15,88.62c.1.52.18,1,.25,1.47h0c.06-.45.13-1,.21-1.45L16.25,84h2.32l-1.8,6.84a11.78,11.78,0,0,1-2,4.5,4.63,4.63,0,0,1-2,1.4l-.71-2A3.67,3.67,0,0,0,13.24,94a3.41,3.41,0,0,0,.74-1,.83.83,0,0,0,.12-.39A1.2,1.2,0,0,0,14,92.2L11.61,84Z"/><path class="cls-2" d="M19.42,86.67c0-.88,0-1.84-.08-2.67H21.4l.12,1.3h.06a2.07,2.07,0,0,1,1.75-1.44,3.08,3.08,0,0,1,.51,0v2.35a2.64,2.64,0,0,0-.52,0,1.57,1.57,0,0,0-1.43,1.26,3.27,3.27,0,0,0-.1.88v4.5H19.42Z"/><path class="cls-2" d="M27.09,81.67A1.2,1.2,0,0,1,25.85,83a1.29,1.29,0,1,1,1.24-1.28ZM24.72,92.86V84h2.37v8.86Z"/><path class="cls-2" d="M32.73,92.86,32.6,92h0a2.31,2.31,0,0,1-2,1,2.45,2.45,0,0,1-2.33-2.69c0-2.32,2.05-3.27,4-3.29v-.19a1.12,1.12,0,0,0-1.24-1.21,3.36,3.36,0,0,0-1.8.51l-.43-1.59a5.83,5.83,0,0,1,2.75-.68c2.69,0,3.13,1.89,3.13,3.68v3.29a12.91,12.91,0,0,0,.13,2Zm-.34-4.31c-.79,0-1.88.28-1.88,1.51,0,.87.49,1.2.86,1.2a1,1,0,0,0,1-.76,1.7,1.7,0,0,0,0-.41Z"/><path class="cls-2" d="M42.81,80.34v9.9c0,.84,0,1.8.07,2.62h-2l-.12-1h0A2.13,2.13,0,0,1,38.83,93c-1.88,0-2.75-2.09-2.75-4.55,0-3.08,1.35-4.59,2.84-4.59a1.52,1.52,0,0,1,1.49.89h0V80.34Zm-2.36,7.07a3.08,3.08,0,0,0,0-.52c-.09-.54-.37-1-.85-1-.83,0-1.14,1.21-1.14,2.64,0,1.68.46,2.56,1.12,2.56.31,0,.64-.16.82-.77a1.64,1.64,0,0,0,.08-.55Z"/><path class="cls-2" d="M49.07,92.86,46.35,80.67H49l.86,5.26c.21,1.31.46,2.8.63,4.23h0c.16-1.45.36-2.91.58-4.28l.83-5.21h2.6L51.72,92.86Z"/><path class="cls-2" d="M59,92.86,58.83,92h0a2.32,2.32,0,0,1-2,1,2.45,2.45,0,0,1-2.33-2.69c0-2.32,2-3.27,4-3.29v-.19a1.12,1.12,0,0,0-1.24-1.21,3.33,3.33,0,0,0-1.8.51l-.43-1.59a5.83,5.83,0,0,1,2.75-.68c2.68,0,3.13,1.89,3.13,3.68v3.29a11.81,11.81,0,0,0,.13,2Zm-.35-4.31c-.78,0-1.87.28-1.87,1.51,0,.87.49,1.2.85,1.2a1,1,0,0,0,1-.76,1.32,1.32,0,0,0,0-.41Z"/><path class="cls-2" d="M62.61,86.67c0-.88,0-1.84-.07-2.67h2.05l.12,1.3h.07a2.06,2.06,0,0,1,1.75-1.44,3.08,3.08,0,0,1,.51,0v2.35a2.75,2.75,0,0,0-.52,0,1.57,1.57,0,0,0-1.43,1.26,3.27,3.27,0,0,0-.1.88v4.5H62.61Z"/><path class="cls-2" d="M70.29,81.67A1.21,1.21,0,0,1,69.05,83a1.29,1.29,0,1,1,1.24-1.28ZM67.91,92.86V84h2.38v8.86Z"/><path class="cls-2" d="M75.92,92.86,75.79,92h0a2.29,2.29,0,0,1-2,1,2.45,2.45,0,0,1-2.33-2.69c0-2.32,2-3.27,4-3.29v-.19a1.13,1.13,0,0,0-1.24-1.21,3.33,3.33,0,0,0-1.8.51L72,84.54a5.79,5.79,0,0,1,2.75-.68c2.68,0,3.12,1.89,3.12,3.68v3.29a12.91,12.91,0,0,0,.13,2Zm-.34-4.31c-.78,0-1.87.28-1.87,1.51,0,.87.49,1.2.85,1.2a1,1,0,0,0,1-.76,1.32,1.32,0,0,0,0-.41Z"/><path class="cls-2" d="M79.5,92.86c0-.79.08-1.78.08-2.62v-9.9h2.36v4.57h0a2.11,2.11,0,0,1,1.85-1c1.71,0,2.5,2,2.5,4.33,0,3.1-1.23,4.81-2.88,4.81a1.84,1.84,0,0,1-1.74-1.18h0l-.13,1Zm2.44-3.17a1.79,1.79,0,0,0,.09.57c.2.63.53.8.81.8.79,0,1.13-1,1.13-2.69,0-1.52-.35-2.51-1.14-2.51-.37,0-.68.38-.8.81a2,2,0,0,0-.09.55Z"/><path class="cls-2" d="M87.67,80.34H90V92.86H87.67Z"/><path class="cls-2" d="M93.72,89.27a1.72,1.72,0,0,0,1.88,1.9,5,5,0,0,0,1.69-.31l.3,1.7a7.07,7.07,0,0,1-2.42.4c-2.41,0-3.74-1.59-3.74-4.35,0-3,1.55-4.75,3.54-4.75s3,1.5,3,4.18a7.8,7.8,0,0,1-.07,1.23Zm2.11-1.66c0-1.13-.29-2-1-2s-1.08,1.13-1.1,2Z"/><path class="cls-2" d="M108.25,92.68a4.83,4.83,0,0,1-1.83.28c-3.11,0-4.6-2.56-4.6-6,0-4.6,2.55-6.39,4.91-6.39a3.48,3.48,0,0,1,1.66.32l-.4,2a2.35,2.35,0,0,0-1.1-.25c-1.35,0-2.56,1.17-2.56,4.19s1.11,4,2.55,4a4.26,4.26,0,0,0,1.14-.18Z"/><path class="cls-2" d="M115.7,88.4c0,3.69-2,4.6-3.38,4.6-2.11,0-3.38-1.67-3.38-4.54,0-3.17,1.67-4.6,3.43-4.6C114.45,83.86,115.7,85.62,115.7,88.4Zm-4.41,0c0,1.51.25,2.78,1.09,2.78s1-1.49,1-2.78-.2-2.76-1-2.76S111.29,87.19,111.29,88.42Z"/><path class="cls-2" d="M117,86.67c0-1,0-1.82-.07-2.67h2l.12,1h0a2.52,2.52,0,0,1,2.15-1.17c1.68,0,2.35,1.34,2.35,3.32v5.68H121.3V87.32c0-.75-.18-1.46-.87-1.46a1,1,0,0,0-.89.79,2.41,2.41,0,0,0-.12.82v5.39H117Z"/><path class="cls-2" d="M130.24,92.7a4,4,0,0,1-1.51.26c-2.24,0-3.71-1.55-3.71-4.44,0-2.74,1.61-4.63,4.06-4.63a3.64,3.64,0,0,1,1.3.23L130.07,86a2.84,2.84,0,0,0-.89-.16c-1.14,0-1.81,1.08-1.81,2.63s.68,2.59,1.79,2.59a2,2,0,0,0,.88-.19Z"/><path class="cls-2" d="M133.12,89.27a1.71,1.71,0,0,0,1.87,1.9,4.86,4.86,0,0,0,1.69-.31l.31,1.7a7.09,7.09,0,0,1-2.43.4c-2.41,0-3.73-1.59-3.73-4.35,0-3,1.55-4.75,3.54-4.75s3,1.5,3,4.18a7.8,7.8,0,0,1-.07,1.23Zm2.11-1.66c0-1.13-.3-2-1-2s-1.09,1.13-1.11,2Z"/><path class="cls-2" d="M138.71,86.81c0-1.06,0-2-.07-2.81h2.05l.12,1h0a2,2,0,0,1,1.86-1.17c1.93,0,2.73,2.12,2.73,4.56,0,3.16-1.38,4.58-2.88,4.58a1.73,1.73,0,0,1-1.46-.86h0v4.19h-2.36Zm2.36,2.82a1.91,1.91,0,0,0,.12.74c.18.55.5.69.76.69.83,0,1.13-1.23,1.13-2.62,0-1.68-.4-2.58-1.1-2.58a.93.93,0,0,0-.81.76,1.77,1.77,0,0,0-.1.63Z"/><path class="cls-2" d="M149.6,81.62V84h1.73v1.69H149.6v4c0,1,.42,1.28.89,1.28a4.1,4.1,0,0,0,.62-.05l0,1.85a5.75,5.75,0,0,1-1.44.15A2.45,2.45,0,0,1,148,92.4a3.2,3.2,0,0,1-.75-2.53V85.69h-1V84h1V82.19Z"/><path class="cls-2" d="M158.4,80.85a13.06,13.06,0,0,1,2.7-.24,4.63,4.63,0,0,1,3.08.86,3,3,0,0,1-.84,4.88v.07a2.9,2.9,0,0,1,2.16,2.91,3.31,3.31,0,0,1-.9,2.39c-.72.79-2,1.23-4,1.23a15.8,15.8,0,0,1-2.2-.13Zm2.36,4.83h.51A1.58,1.58,0,0,0,162.78,84c0-.9-.42-1.59-1.39-1.59a1.82,1.82,0,0,0-.63.08Zm0,5.4a2.07,2.07,0,0,0,.53,0A1.67,1.67,0,0,0,163,89.3a1.72,1.72,0,0,0-1.77-1.86h-.51Z"/><path class="cls-2" d="M173.4,88.4c0,3.69-2,4.6-3.37,4.6-2.12,0-3.39-1.67-3.39-4.54,0-3.17,1.67-4.6,3.43-4.6C172.15,83.86,173.4,85.62,173.4,88.4Zm-4.4,0c0,1.51.24,2.78,1.08,2.78s1-1.49,1-2.78-.2-2.76-1-2.76S169,87.19,169,88.42Z"/><path class="cls-2" d="M174.74,80.34h2.38V92.86h-2.38Z"/><path class="cls-2" d="M185.24,80.34v9.9c0,.84,0,1.8.07,2.62h-2l-.13-1h0A2.13,2.13,0,0,1,181.26,93c-1.89,0-2.75-2.09-2.75-4.55,0-3.08,1.35-4.59,2.84-4.59a1.52,1.52,0,0,1,1.49.89h0V80.34Zm-2.36,7.07a3.08,3.08,0,0,0,0-.52c-.09-.54-.37-1-.85-1-.83,0-1.14,1.21-1.14,2.64,0,1.68.46,2.56,1.12,2.56.3,0,.64-.16.82-.77a1.64,1.64,0,0,0,.08-.55Z"/><path class="cls-2" d="M195.83,92.68A4.79,4.79,0,0,1,194,93c-3.11,0-4.6-2.56-4.6-6,0-4.6,2.55-6.39,4.91-6.39a3.48,3.48,0,0,1,1.66.32l-.4,2a2.35,2.35,0,0,0-1.1-.25c-1.35,0-2.56,1.17-2.56,4.19s1.11,4,2.55,4a4.19,4.19,0,0,0,1.14-.18Z"/><path class="cls-2" d="M203.28,88.4c0,3.69-2,4.6-3.37,4.6-2.12,0-3.39-1.67-3.39-4.54,0-3.17,1.67-4.6,3.43-4.6C202,83.86,203.28,85.62,203.28,88.4Zm-4.4,0c0,1.51.24,2.78,1.08,2.78s1-1.49,1-2.78-.2-2.76-1-2.76S198.88,87.19,198.88,88.42Z"/><path class="cls-2" d="M204.63,86.67c0-1,0-1.82-.08-2.67h2l.12,1h0a2.5,2.5,0,0,1,2.14-1.17c1.68,0,2.36,1.34,2.36,3.32v5.68h-2.38V87.32c0-.75-.17-1.46-.87-1.46a1,1,0,0,0-.89.79,2.69,2.69,0,0,0-.12.82v5.39h-2.37Z"/><path class="cls-2" d="M219.33,80.34v9.9c0,.84,0,1.8.08,2.62h-2l-.13-1h0A2.15,2.15,0,0,1,215.36,93c-1.89,0-2.76-2.09-2.76-4.55,0-3.08,1.36-4.59,2.85-4.59a1.53,1.53,0,0,1,1.49.89h0V80.34ZM217,87.41a3.08,3.08,0,0,0,0-.52c-.08-.54-.36-1-.84-1-.83,0-1.14,1.21-1.14,2.64,0,1.68.46,2.56,1.11,2.56.31,0,.64-.16.83-.77a1.67,1.67,0,0,0,.07-.55Z"/><path class="cls-2" d="M223,89.27a1.72,1.72,0,0,0,1.88,1.9,4.84,4.84,0,0,0,1.68-.31l.31,1.7a7.07,7.07,0,0,1-2.42.4c-2.42,0-3.74-1.59-3.74-4.35,0-3,1.55-4.75,3.54-4.75s3,1.5,3,4.18a6.45,6.45,0,0,1-.08,1.23Zm2.11-1.66c0-1.13-.3-2-1-2s-1.08,1.13-1.1,2Z"/><path class="cls-2" d="M228.57,86.67c0-1,0-1.82-.07-2.67h2.05l.12,1h0a2.5,2.5,0,0,1,2.14-1.17c1.68,0,2.36,1.34,2.36,3.32v5.68h-2.38V87.32c0-.75-.17-1.46-.87-1.46a1,1,0,0,0-.89.79,2.69,2.69,0,0,0-.12.82v5.39h-2.38Z"/><path class="cls-2" d="M236.79,90.73a3.4,3.4,0,0,0,1.6.46c.6,0,1-.27,1-.79s-.27-.74-1-1.19a2.88,2.88,0,0,1-1.79-2.55,2.73,2.73,0,0,1,2.91-2.8,4.05,4.05,0,0,1,1.8.41L240.81,86a2.5,2.5,0,0,0-1.23-.35c-.61,0-.89.35-.89.75s.21.62,1,1.11a3,3,0,0,1,1.78,2.66c0,1.82-1.3,2.79-3.13,2.79a3.87,3.87,0,0,1-2-.5Z"/><path class="cls-2" d="M244.71,89.27a1.71,1.71,0,0,0,1.87,1.9,4.86,4.86,0,0,0,1.69-.31l.31,1.7a7.13,7.13,0,0,1-2.43.4c-2.41,0-3.74-1.59-3.74-4.35,0-3,1.55-4.75,3.55-4.75s3,1.5,3,4.18a7.8,7.8,0,0,1-.07,1.23Zm2.1-1.66c0-1.13-.29-2-1-2s-1.08,1.13-1.1,2Z"/><path class="cls-2" d="M256.72,80.34v9.9c0,.84,0,1.8.08,2.62h-2l-.13-1h0A2.13,2.13,0,0,1,252.74,93c-1.88,0-2.75-2.09-2.75-4.55,0-3.08,1.35-4.59,2.84-4.59a1.54,1.54,0,0,1,1.5.89h0V80.34Zm-2.36,7.07a3.08,3.08,0,0,0,0-.52c-.09-.54-.36-1-.84-1-.83,0-1.14,1.21-1.14,2.64,0,1.68.46,2.56,1.11,2.56.31,0,.64-.16.82-.77a1.64,1.64,0,0,0,.08-.55Z"/></g></g></svg>