<svg xmlns="http://www.w3.org/2000/svg" viewBox="0 0 234.13 68.5"><defs><style>.cls-1,.cls-2{font-size:15.78px;}.cls-1,.cls-2,.cls-3{fill:#fff;}.cls-1{font-family:ONEMobilePOPRegular, ONE Mobile POP;}.cls-2{font-family:MalgunGothicBold, Malgun Gothic;}</style></defs><g id="Layer_2" data-name="Layer 2"><g id="Layer_1-2" data-name="Layer 1"><text class="cls-1" transform="translate(0 12.63)">ONE 모바일POP</text><text class="cls-2" transform="translate(0 64.63)">맑은 고딕 Bold</text><path class="cls-3" d="M5.75,39.78a6.57,6.57,0,0,0,2.9.69A7,7,0,0,0,11.24,40,4.11,4.11,0,0,0,13,38.75a2.89,2.89,0,0,0,.64-1.85A2.13,2.13,0,0,0,13,35.31a4.57,4.57,0,0,0-1.57-1c-.63-.24-1.48-.54-2.56-.87a30.32,30.32,0,0,1-3.12-1.07,5.38,5.38,0,0,1-2-1.42,3.48,3.48,0,0,1-.84-2.4,3.76,3.76,0,0,1,.77-2.31,5.12,5.12,0,0,1,2.14-1.6,8,8,0,0,1,3.1-.57,7.19,7.19,0,0,1,3.15.72,7.82,7.82,0,0,1,2.54,1.89l-1.21.82a6.15,6.15,0,0,0-2-1.59,5.54,5.54,0,0,0-2.48-.57,5.22,5.22,0,0,0-3.15.9,2.73,2.73,0,0,0-1.24,2.31,2.32,2.32,0,0,0,.66,1.7,4.86,4.86,0,0,0,1.64,1.07c.66.26,1.54.56,2.66.9s2.26.74,3,1.06a5.54,5.54,0,0,1,1.94,1.38,3.24,3.24,0,0,1,.79,2.25,4,4,0,0,1-.83,2.52,5.36,5.36,0,0,1-2.33,1.71,9,9,0,0,1-3.44.62A8.53,8.53,0,0,1,5,40.93a8.72,8.72,0,0,1-3-2.2l1.21-.82A8,8,0,0,0,5.75,39.78Z"/><path class="cls-3" d="M22.61,40.87a6.59,6.59,0,0,1-2.73-2.43,6.52,6.52,0,0,1-1-3.57V24.27h1.62V34.89a5.47,5.47,0,0,0,.78,2.89,5.35,5.35,0,0,0,2.17,2,7.39,7.39,0,0,0,6.28,0,5.29,5.29,0,0,0,2.17-2,5.47,5.47,0,0,0,.78-2.89V24.27h1.62v10.6a6.6,6.6,0,0,1-1,3.57,6.68,6.68,0,0,1-2.74,2.43,8.87,8.87,0,0,1-4,.88A8.87,8.87,0,0,1,22.61,40.87Z"/><path class="cls-3" d="M40.24,24.27V41.58H38.62V24.27Z"/><path class="cls-3" d="M58.27,25.54H52v16H50.43v-16H44.25V24.27h14Z"/><path class="cls-3" d="M77.92,41.58H76.19L68,24.27h1.75L77,39.88l7-15.61h1.75Z"/><path class="cls-3" d="M99.18,41.58H97.57V38.92a6.28,6.28,0,0,1-1.26,1.5,5.41,5.41,0,0,1-1.66,1,5.56,5.56,0,0,1-1.91.33,6.89,6.89,0,0,1-3.31-.78,5.7,5.7,0,0,1-2.28-2.18,6.58,6.58,0,0,1,0-6.36,5.74,5.74,0,0,1,2.28-2.17,6.89,6.89,0,0,1,3.31-.78,5.6,5.6,0,0,1,4.83,2.76V29.38h1.61Zm-4-1.76A5,5,0,0,0,97,38.07a4.8,4.8,0,0,0,.67-2.48,4.89,4.89,0,0,0-4.88-4.87,4.89,4.89,0,0,0-2.46.62,4.54,4.54,0,0,0-1.72,1.73,5.41,5.41,0,0,0,0,5,4.54,4.54,0,0,0,1.72,1.73,4.89,4.89,0,0,0,2.46.62A4.82,4.82,0,0,0,95.15,39.82Z"/><path class="cls-3" d="M106.07,30.1a5.69,5.69,0,0,1,2.92-.79v1.36a4.81,4.81,0,0,0-2.4.65A5.12,5.12,0,0,0,104.78,33a4.11,4.11,0,0,0-.69,2.27v6.28h-1.62V29.38h1.62v2.75A4.77,4.77,0,0,1,106.07,30.1Z"/><path class="cls-3" d="M113.68,24.49a.89.89,0,0,1,.3.69.91.91,0,0,1-.3.71,1.05,1.05,0,0,1-.78.28,1.11,1.11,0,0,1-.77-.28.92.92,0,0,1-.31-.71.9.9,0,0,1,.31-.69,1.14,1.14,0,0,1,.77-.26A1.08,1.08,0,0,1,113.68,24.49Zm0,4.89v12.2h-1.62V29.38Z"/><path class="cls-3" d="M129.88,41.58h-1.62V38.92a6.24,6.24,0,0,1-1.25,1.5,5.53,5.53,0,0,1-1.66,1,5.6,5.6,0,0,1-1.91.33,6.93,6.93,0,0,1-3.32-.78,5.61,5.61,0,0,1-2.27-2.18,6.51,6.51,0,0,1,0-6.36,5.65,5.65,0,0,1,2.27-2.17,6.93,6.93,0,0,1,3.32-.78,5.56,5.56,0,0,1,2.75.72,5.48,5.48,0,0,1,2.07,2V29.38h1.62Zm-4-1.76a4.92,4.92,0,0,0,1.79-1.75,4.72,4.72,0,0,0,.68-2.48,4.67,4.67,0,0,0-.68-2.48,4.91,4.91,0,0,0-4.2-2.39,5,5,0,0,0-2.47.62,4.51,4.51,0,0,0-1.71,1.73,5.41,5.41,0,0,0,0,5A4.51,4.51,0,0,0,121,39.83a5,5,0,0,0,2.47.62A4.82,4.82,0,0,0,125.85,39.82Z"/><path class="cls-3" d="M138.33,41.43a6.06,6.06,0,0,1-1.77-.94,5.07,5.07,0,0,1-1.34-1.57v2.66H133.6V24.27h1.62v7.89A5.21,5.21,0,0,1,137.41,30a6.11,6.11,0,0,1,2.79-.68,7,7,0,0,1,3.37.8,5.76,5.76,0,0,1,2.32,2.19,6.53,6.53,0,0,1,0,6.41,5.75,5.75,0,0,1-2.33,2.2,7.12,7.12,0,0,1-3.38.8A5.76,5.76,0,0,1,138.33,41.43Zm4.38-1.59a4.51,4.51,0,0,0,1.76-1.76,5.36,5.36,0,0,0,0-5.08,4.42,4.42,0,0,0-1.76-1.75,5.17,5.17,0,0,0-2.56-.63,4.73,4.73,0,0,0-2.44.68,5,5,0,0,0-1.82,1.79,4.68,4.68,0,0,0-.67,2.45,4.81,4.81,0,0,0,.66,2.47,5,5,0,0,0,1.79,1.79,4.73,4.73,0,0,0,2.48.67A5.17,5.17,0,0,0,142.71,39.84Z"/><path class="cls-3" d="M151,24.27V41.58h-1.62V24.27Z"/><path class="cls-3" d="M166.09,34.59a9.7,9.7,0,0,1,0,1.52v0H155.32a4.45,4.45,0,0,0,.76,2.17,4.54,4.54,0,0,0,1.7,1.49,5.1,5.1,0,0,0,2.31.53,5.18,5.18,0,0,0,2.89-.64,4.74,4.74,0,0,0,1.37-1.34l.06-.08,1.26.65a4.75,4.75,0,0,1-2,1.91,7.38,7.38,0,0,1-3.58.77,7,7,0,0,1-3.34-.77,5.65,5.65,0,0,1-2.26-2.18,6.69,6.69,0,0,1,0-6.38,5.65,5.65,0,0,1,2.26-2.18,7,7,0,0,1,3.34-.78,6.19,6.19,0,0,1,3,.65,5.25,5.25,0,0,1,1.7,1.35,6.46,6.46,0,0,1,.76,1.26l0,0A6.38,6.38,0,0,1,166.09,34.59Zm-2.16-1.81a3.88,3.88,0,0,0-1.42-1.59,4.13,4.13,0,0,0-2.36-.59,5.16,5.16,0,0,0-2.36.55,4.57,4.57,0,0,0-1.71,1.52,4.67,4.67,0,0,0-.76,2.22l9.17,0A5.79,5.79,0,0,0,163.93,32.78Z"/><path class="cls-3" d="M177.67,40.31h10.27v1.27H176.05V24.27h1.62Z"/><path class="cls-3" d="M193.3,24.49a.88.88,0,0,1,.29.69.91.91,0,0,1-.29.71,1.21,1.21,0,0,1-1.55,0,.89.89,0,0,1-.31-.71.86.86,0,0,1,.31-.69,1.29,1.29,0,0,1,1.55,0Zm0,4.89v12.2h-1.62V29.38Z"/><path class="cls-3" d="M208.69,44.13a5.58,5.58,0,0,1-2.27,2.17,7.76,7.76,0,0,1-6.41.15,6.18,6.18,0,0,1-2.37-1.93l1.29-.76a5.3,5.3,0,0,0,6.66,1.41,4.25,4.25,0,0,0,1.7-1.74,5.44,5.44,0,0,0,.59-2.57V38.8a4.73,4.73,0,0,1-1.94,2.09,5.5,5.5,0,0,1-2.91.83,6.93,6.93,0,0,1-3.32-.78,5.58,5.58,0,0,1-2.26-2.18,6.26,6.26,0,0,1-.81-3.2,6.11,6.11,0,0,1,.81-3.15,5.67,5.67,0,0,1,2.26-2.16,6.93,6.93,0,0,1,3.32-.78,6,6,0,0,1,2,.35,5.34,5.34,0,0,1,1.71,1,4.4,4.4,0,0,1,1.12,1.45V29.38h1.62V40.93A6.29,6.29,0,0,1,208.69,44.13Zm-3.21-4.35A4.93,4.93,0,0,0,207.26,38a4.76,4.76,0,0,0,.65-2.43,4.57,4.57,0,0,0-.66-2.38,5.06,5.06,0,0,0-1.78-1.78,4.72,4.72,0,0,0-2.44-.65,4.85,4.85,0,0,0-2.47.62,4.37,4.37,0,0,0-1.7,1.71,5.08,5.08,0,0,0-.6,2.48,5.25,5.25,0,0,0,.6,2.53,4.44,4.44,0,0,0,1.7,1.74,5,5,0,0,0,2.47.62A4.68,4.68,0,0,0,205.48,39.78Z"/><path class="cls-3" d="M221.73,31.83a3.32,3.32,0,0,0-2.56-1.08,3.86,3.86,0,0,0-2.11.59A4.46,4.46,0,0,0,215.53,33a4.53,4.53,0,0,0-.56,2.23v6.4h-1.62V24.27H215V31.9a4.16,4.16,0,0,1,1.6-1.72,4.78,4.78,0,0,1,2.6-.71,5.35,5.35,0,0,1,2.68.66A4.76,4.76,0,0,1,223.69,32a5.23,5.23,0,0,1,.66,2.64v7h-1.62V34.63A4,4,0,0,0,221.73,31.83Z"/><path class="cls-3" d="M226.61,29.4h7.47v1.27h-7.47Zm7.44,11.87a5.33,5.33,0,0,1-.74.19,5.82,5.82,0,0,1-.88.07,4,4,0,0,1-1.82-.4A3,3,0,0,1,229.37,40a3.06,3.06,0,0,1-.44-1.61V26.17h1.61V38.41a1.73,1.73,0,0,0,.53,1.32,1.88,1.88,0,0,0,1.36.51,4.64,4.64,0,0,0,1.24-.22l0,0,.43,1.24Z"/></g></g></svg>