<svg xmlns="http://www.w3.org/2000/svg" viewBox="0 0 232.6 191.64"><defs><style>.cls-1{font-size:20px;font-family:Dutch801BT-ExtraBold, Dutch801 XBd BT;font-weight:800;}.cls-1,.cls-2,.cls-5,.cls-6,.cls-7{fill:#fff;}.cls-2{font-size:27px;font-family:MerryChristmasFlake, Merry Christmas Flake;}.cls-3{letter-spacing:0.13em;}.cls-4{letter-spacing:0em;}.cls-5{font-size:30px;font-family:MerryChristmasStar, Merry Christmas Star;}.cls-6{font-size:35px;font-family:Century;}</style></defs><g id="Layer_2" data-name="Layer 2"><g id="Layer_1-2" data-name="Layer 1"><text class="cls-1" transform="translate(0 16.78)">Dutch 801 Extra Bold BT</text><text class="cls-2" transform="translate(0 49.93) scale(1.12 1)">Merry Christmas <tspan class="cls-3" x="129.92" y="0">F</tspan><tspan class="cls-4" x="149.28" y="0">lake</tspan></text><text class="cls-5" transform="translate(0 89.51) scale(1.04 1)">Merry Christmas Star</text><text class="cls-6" transform="translate(0 136.81) scale(0.76 1)">Century</text><path class="cls-7" d="M7.14,185.7a5.14,5.14,0,0,1-3.46-1.12,6.2,6.2,0,0,1-1.85-3.21,19,19,0,0,1-.56-4.88V165.75a17.85,17.85,0,0,1,.57-4.82,6,6,0,0,1,1.85-3.08,5.23,5.23,0,0,1,3.45-1.06,5.14,5.14,0,0,1,3.44,1.08A6.1,6.1,0,0,1,12.42,161a17.64,17.64,0,0,1,.57,4.8v10.77a18.18,18.18,0,0,1-.57,4.83,6.48,6.48,0,0,1-1.84,3.21A5,5,0,0,1,7.14,185.7Zm0-3.12a2.36,2.36,0,0,0,1.8-.65,3.46,3.46,0,0,0,.82-1.82,15.66,15.66,0,0,0,.21-2.74V164.94a15.14,15.14,0,0,0-.21-2.71,3.22,3.22,0,0,0-.82-1.75,2.42,2.42,0,0,0-1.8-.61,2.46,2.46,0,0,0-1.81.61,3.23,3.23,0,0,0-.83,1.75,15.14,15.14,0,0,0-.21,2.71v12.43a15.66,15.66,0,0,0,.21,2.74,3.47,3.47,0,0,0,.83,1.82A2.4,2.4,0,0,0,7.14,182.58Z"/><path class="cls-7" d="M19.23,185.66a3.57,3.57,0,0,1-3-1.56A7.67,7.67,0,0,1,14.92,180l2.35-1a8.31,8.31,0,0,0,.72,2.89,1.59,1.59,0,0,0,1.48,1,1.32,1.32,0,0,0,1.16-.57,2.69,2.69,0,0,0,.4-1.56,4.19,4.19,0,0,0-.29-1.58,5.37,5.37,0,0,0-.95-1.43l-2.62-3a9,9,0,0,1-1.34-2,6.75,6.75,0,0,1-.54-2.91,6.6,6.6,0,0,1,.49-2.71,3.58,3.58,0,0,1,3.45-2.26A3.08,3.08,0,0,1,22,166.43a8,8,0,0,1,1.1,3.76l-1.91.94a11.56,11.56,0,0,0-.31-1.83,3.21,3.21,0,0,0-.59-1.23,1.21,1.21,0,0,0-1-.44,1.26,1.26,0,0,0-1.1.62,2.5,2.5,0,0,0-.41,1.45,3,3,0,0,0,.17,1,3,3,0,0,0,.59,1l2.7,3.29a13.34,13.34,0,0,1,1.05,1.44,7.62,7.62,0,0,1,.8,1.75,7.11,7.11,0,0,1,.32,2.27,6.78,6.78,0,0,1-.53,2.87,3.73,3.73,0,0,1-1.48,1.73A4.13,4.13,0,0,1,19.23,185.66Z"/><path class="cls-7" d="M27.35,185.38l-2.46-20.23h2.33l1.58,14.91,2-14.91H33l2,14.84,1.58-14.84H39l-2.54,20.23H34L32,171.1l-2.06,14.28Z"/><path class="cls-7" d="M43.88,185.66a2.21,2.21,0,0,1-1.59-.68,5,5,0,0,1-1.08-1.75,6.55,6.55,0,0,1-.4-2.26,9.18,9.18,0,0,1,.48-3.18,6.27,6.27,0,0,1,1.31-2.19A8.92,8.92,0,0,1,44.53,174q1.09-.66,2.31-1.29v-1.44a16.3,16.3,0,0,0-.1-2,2.38,2.38,0,0,0-.44-1.21,1.2,1.2,0,0,0-1-.4,1.3,1.3,0,0,0-.94.35,2,2,0,0,0-.51,1,6.22,6.22,0,0,0-.16,1.52v1l-2.81-.13a9.06,9.06,0,0,1,1.17-5,3.9,3.9,0,0,1,3.44-1.59,3.42,3.42,0,0,1,3.22,1.64,9.61,9.61,0,0,1,1,4.76v9.24c0,.63,0,1.24,0,1.82s.07,1.13.11,1.63.08,1,.12,1.42H47.35c-.06-.37-.12-.85-.2-1.42s-.14-1.09-.17-1.55a6,6,0,0,1-1,2.22A2.43,2.43,0,0,1,43.88,185.66ZM45,182.44a1.22,1.22,0,0,0,.8-.32,4.15,4.15,0,0,0,1.05-1.36V175c-.44.33-.85.65-1.24,1a7.61,7.61,0,0,0-1,1,4.09,4.09,0,0,0-.68,1.23,4.38,4.38,0,0,0-.26,1.55,4.44,4.44,0,0,0,.35,1.93A1.07,1.07,0,0,0,45,182.44Z"/><path class="cls-7" d="M52.66,185.38V157h2.83v28.35Z"/><path class="cls-7" d="M62,185.66a3.05,3.05,0,0,1-2.88-1.87c-.64-1.25-.95-3.37-.95-6.36v-3.92a28.61,28.61,0,0,1,.29-4.28,7.62,7.62,0,0,1,1.09-3.17,2.69,2.69,0,0,1,2.37-1.19,2.3,2.3,0,0,1,1.4.46,5,5,0,0,1,1.14,1.12V157h2.83v28.35H64.46v-1.3a5,5,0,0,1-1.1,1.14A2.24,2.24,0,0,1,62,185.66Zm.71-2.94a2.12,2.12,0,0,0,.85-.19,3.51,3.51,0,0,0,.9-.58V168.68a5,5,0,0,0-.82-.61,2,2,0,0,0-1-.26c-.65,0-1.09.41-1.32,1.24a11.34,11.34,0,0,0-.34,3v5.71c0,.93,0,1.78.11,2.54a4.69,4.69,0,0,0,.49,1.78A1.21,1.21,0,0,0,62.71,182.72Z"/><path class="cls-7" d="M76.28,185.38V165.15h2.83V168a6.41,6.41,0,0,1,1.7-2.48,2.8,2.8,0,0,1,1.69-.63h.2l.25,0v4.13a3.48,3.48,0,0,0-.73-.3,2.92,2.92,0,0,0-.83-.12,2,2,0,0,0-1.21.4,4.16,4.16,0,0,0-1.07,1.56v14.77Z"/><path class="cls-7" d="M88.93,185.66a3.88,3.88,0,0,1-2.78-.93A5.11,5.11,0,0,1,84.79,182a21.24,21.24,0,0,1-.39-4.42V173a21.56,21.56,0,0,1,.4-4.49,5.11,5.11,0,0,1,1.39-2.69,3.88,3.88,0,0,1,2.74-.91,3.58,3.58,0,0,1,2.84,1,5.79,5.79,0,0,1,1.2,3,32.19,32.19,0,0,1,.3,4.74v1.64h-6v4.06a9,9,0,0,0,.18,2,2.26,2.26,0,0,0,.55,1.14,1.4,1.4,0,0,0,1,.36,1.17,1.17,0,0,0,1-.4,2.39,2.39,0,0,0,.45-1.15,11.36,11.36,0,0,0,.12-1.77v-1.23h2.75v.78a9.91,9.91,0,0,1-1,4.79A3.49,3.49,0,0,1,88.93,185.66Zm-1.7-12.36h3.26v-1.81a17.64,17.64,0,0,0-.11-2.12,2.72,2.72,0,0,0-.43-1.3,1.25,1.25,0,0,0-1-.44,1.27,1.27,0,0,0-1,.42,2.72,2.72,0,0,0-.49,1.42,21.54,21.54,0,0,0-.14,2.75Z"/><path class="cls-7" d="M99.8,191.64a7.48,7.48,0,0,1-2.49-.38A3.65,3.65,0,0,1,95.57,190a3.56,3.56,0,0,1-.64-2.21,4.28,4.28,0,0,1,.32-1.71,4.2,4.2,0,0,1,.82-1.28,5.12,5.12,0,0,1,1.06-.89,2.09,2.09,0,0,1-1.11-.9,2.4,2.4,0,0,1-.37-1.28,3.79,3.79,0,0,1,.45-1.92,10.63,10.63,0,0,1,1.24-1.75A5.58,5.58,0,0,1,96,175.86a12.55,12.55,0,0,1-.45-3.78,13.55,13.55,0,0,1,.49-4,5,5,0,0,1,1.45-2.42,3.51,3.51,0,0,1,2.37-.82,3.31,3.31,0,0,1,2,.56,3.48,3.48,0,0,1,1.15,1.68,4.74,4.74,0,0,1,.71-1,5.25,5.25,0,0,1,1.35-1.14l.42-.25.72,2.42a5,5,0,0,0-.92.33c-.38.18-.73.35-1,.53a2.16,2.16,0,0,0-.63.43,9.54,9.54,0,0,1,.33,1.72,15.22,15.22,0,0,1,.15,2,14.83,14.83,0,0,1-.4,3.65,5,5,0,0,1-1.31,2.46,3.42,3.42,0,0,1-2.52.89,4.91,4.91,0,0,1-.74-.06,5.4,5.4,0,0,1-.72-.18c-.1.21-.21.45-.33.73a2.26,2.26,0,0,0-.17.81.72.72,0,0,0,.3.61,2.09,2.09,0,0,0,1,.3l2.38.28a3.62,3.62,0,0,1,2.67,1.43,7.17,7.17,0,0,1,.29,6.29,3.62,3.62,0,0,1-1.76,1.69A6.78,6.78,0,0,1,99.8,191.64Zm.21-2.93a4,4,0,0,0,2.22-.48,1.68,1.68,0,0,0,.72-1.52,2.67,2.67,0,0,0-.18-1.05,1.28,1.28,0,0,0-.62-.66,3.57,3.57,0,0,0-1.29-.36l-2.41-.27c-.2.25-.38.51-.56.76a4.31,4.31,0,0,0-.42.83,2.82,2.82,0,0,0-.16.92,1.65,1.65,0,0,0,.58,1.37A3.63,3.63,0,0,0,100,188.71Zm-.13-12.15a1.43,1.43,0,0,0,1-.3,1.89,1.89,0,0,0,.55-.87,7,7,0,0,0,.25-1.42q.06-.84.06-1.89c0-.7,0-1.34-.06-1.91a8.67,8.67,0,0,0-.24-1.47,2,2,0,0,0-.53-.93,1.41,1.41,0,0,0-1-.31,1.46,1.46,0,0,0-1,.31,1.84,1.84,0,0,0-.57.9,6.81,6.81,0,0,0-.26,1.43,19.4,19.4,0,0,0-.08,2q0,.94.06,1.77a5.79,5.79,0,0,0,.27,1.41,2.18,2.18,0,0,0,.57,1A1.32,1.32,0,0,0,99.88,176.56Z"/><path class="cls-7" d="M109.53,185.66a1.68,1.68,0,0,1-1.4-.63,3.65,3.65,0,0,1-.7-1.57,9.58,9.58,0,0,1-.2-1.93V165.15h2.83v15.26a4.83,4.83,0,0,0,.24,1.7.94.94,0,0,0,1,.61,1.67,1.67,0,0,0,1-.37,6.22,6.22,0,0,0,1-.89V165.15h2.83v20.23h-2.83v-2a8,8,0,0,1-1.68,1.62A3.48,3.48,0,0,1,109.53,185.66Z"/><path class="cls-7" d="M119.24,185.38V157h2.83v28.35Z"/><path class="cls-7" d="M127.78,185.66a2.17,2.17,0,0,1-1.58-.68,4.88,4.88,0,0,1-1.09-1.75,6.55,6.55,0,0,1-.4-2.26,9.18,9.18,0,0,1,.48-3.18,6.27,6.27,0,0,1,1.31-2.19,8.92,8.92,0,0,1,1.93-1.56c.73-.44,1.5-.87,2.32-1.29v-1.44a16,16,0,0,0-.11-2,2.38,2.38,0,0,0-.44-1.21,1.2,1.2,0,0,0-1-.4,1.3,1.3,0,0,0-.94.35,2,2,0,0,0-.51,1,6.22,6.22,0,0,0-.16,1.52v1l-2.81-.13a9.06,9.06,0,0,1,1.17-5,3.9,3.9,0,0,1,3.44-1.59,3.42,3.42,0,0,1,3.22,1.64,9.6,9.6,0,0,1,1,4.76v9.24c0,.63,0,1.24,0,1.82s.06,1.13.1,1.63.08,1,.12,1.42h-2.59c-.05-.37-.12-.85-.2-1.42s-.14-1.09-.17-1.55a6,6,0,0,1-1,2.22A2.43,2.43,0,0,1,127.78,185.66Zm1.11-3.22a1.22,1.22,0,0,0,.8-.32,4.08,4.08,0,0,0,.66-.71,5.28,5.28,0,0,0,.4-.65V175c-.45.33-.86.65-1.25,1a7.61,7.61,0,0,0-1,1,4.09,4.09,0,0,0-.68,1.23,4.38,4.38,0,0,0-.26,1.55,4.44,4.44,0,0,0,.35,1.93A1.07,1.07,0,0,0,128.89,182.44Z"/><path class="cls-7" d="M136.38,185.38V165.15h2.83V168a6.41,6.41,0,0,1,1.69-2.48,2.85,2.85,0,0,1,1.7-.63h.19l.26,0v4.13a3.71,3.71,0,0,0-.73-.3,3,3,0,0,0-.83-.12,2,2,0,0,0-1.21.4,4,4,0,0,0-1.07,1.56v14.77Z"/></g></g></svg>