<svg xmlns="http://www.w3.org/2000/svg" viewBox="0 0 177.75 88.37"><defs><style>.cls-1{font-size:15.78px;font-family:Cafe24Ssurround, Cafe24 Ssurround;}.cls-1,.cls-3,.cls-9{fill:#fff;}.cls-2{letter-spacing:-0.03em;}.cls-3{font-size:23.97px;font-family:MyriadPro-Regular, Myriad Pro;}.cls-4{letter-spacing:0.01em;}.cls-5{letter-spacing:0em;}.cls-6{letter-spacing:0em;}.cls-7{letter-spacing:-0.02em;}.cls-8{letter-spacing:-0.01em;}</style></defs><g id="Layer_2" data-name="Layer 2"><g id="Layer_1-2" data-name="Layer 1"><text class="cls-1" transform="translate(0 12.23)">카페<tspan class="cls-2" x="29.99" y="0">2</tspan><tspan x="39.71" y="0">4 써라운드 Bold</tspan></text><text class="cls-3" transform="translate(0 41.19) scale(1.12 1)"><tspan class="cls-4">M</tspan><tspan x="19.44" y="0">y</tspan><tspan class="cls-5" x="30.72" y="0">r</tspan><tspan class="cls-6" x="38.66" y="0">iad </tspan><tspan class="cls-7" x="74.41" y="0">P</tspan><tspan class="cls-8" x="86.78" y="0">r</tspan><tspan x="94.37" y="0">o</tspan></text><path class="cls-9" d="M2.77,60.59l-.83,3.58H.13C.47,62.83,3,51.94,3.37,50.42H5.73L9.14,64.17H7.2l-.87-3.58Zm3.18-2c-.73-3-1.21-5-1.44-6.26h0c-.26,1.56-.76,3.7-1.36,6.26Z" transform="translate(-0.13)"/><path class="cls-9" d="M16.56,60.68c-.25,2-1.23,3.67-3.3,3.67C11,64.35,9.84,62.41,9.84,59c0-3.16,1.28-5.35,3.53-5.35s3.12,2.24,3.19,3.76H14.78c-.1-1-.48-1.92-1.45-1.92-1.19,0-1.68,1.41-1.68,3.43,0,2.48.61,3.58,1.65,3.58s1.29-.8,1.49-1.85Z" transform="translate(-0.13)"/><path class="cls-9" d="M24.26,61.17c0,1.42,0,2.48,0,3H22.56c0-.31-.06-.81-.07-1.37a2.19,2.19,0,0,1-2.19,1.55c-1.44,0-2.39-1.12-2.39-3.59V53.88h1.77v6.47c0,1.17.3,2,1.25,2s1.54-.8,1.54-2.76V53.88h1.79Z" transform="translate(-0.13)"/><path class="cls-9" d="M26.29,57.07c0-2,0-2.72,0-3.19H28c0,.33.05.93.06,1.3a2.32,2.32,0,0,1,2.16-1.5,2,2,0,0,1,2,1.66,2.52,2.52,0,0,1,2.31-1.66c1.27,0,2.43.89,2.43,3.56v6.93H35.16V57.63c0-1-.27-2-1.21-2s-1.46,1-1.46,2.61v5.92H30.74V57.54c0-1-.35-1.88-1.21-1.88s-1.48.84-1.48,2.73v5.78H26.29Z" transform="translate(-0.13)"/><path class="cls-9" d="M38.94,49.61h1.78V52H38.94Zm0,4.27h1.78V64.17H38.94Z" transform="translate(-0.13)"/><path class="cls-9" d="M42.75,57.09c0-2.12,0-2.76,0-3.21h1.74c0,.19.06,1,.06,1.43a2.34,2.34,0,0,1,2.21-1.63c1.56,0,2.46,1.28,2.46,3.78v6.71H47.4V57.89c0-1.27-.27-2.23-1.3-2.23s-1.57.93-1.57,2.85v5.66H42.75Z" transform="translate(-0.13)"/><path class="cls-9" d="M57.24,64.17,53.86,50.42h2l1.46,6.43c.42,1.85.85,3.74,1.06,5h0c.21-1.19.68-3.18,1.11-5L61,50.42h1.89L59.43,64.17Z" transform="translate(-0.13)"/><path class="cls-9" d="M69.06,61.63c0,.7,0,1.87.11,2.54H67.6a10.59,10.59,0,0,1-.12-1.36,2.23,2.23,0,0,1-2.24,1.54c-1.91,0-2.56-1.63-2.56-3.14,0-1.75.9-3.34,3.62-3.34h1V57c0-.88-.2-1.66-1.25-1.66s-1.25.64-1.35,1.52H63c.09-1.65.83-3.22,3.11-3.22,1.76,0,3,.85,3,3.33Zm-1.69-2.2h-1c-1.56,0-1.85.84-1.85,1.61s.36,1.48,1.21,1.48c1.32,0,1.68-1.17,1.68-2.88Z" transform="translate(-0.13)"/><path class="cls-9" d="M71.09,57.37c0-1.67,0-2.85,0-3.49h1.73c0,.46,0,1.12,0,1.9a2.59,2.59,0,0,1,2.41-2.07v2.4c-1.65,0-2.38.94-2.38,3.25v4.81H71.09Z" transform="translate(-0.13)"/><path class="cls-9" d="M76.48,49.61h1.78V52H76.48Zm0,4.27h1.78V64.17H76.48Z" transform="translate(-0.13)"/><path class="cls-9" d="M86.14,61.63c0,.7,0,1.87.11,2.54H84.68a10.59,10.59,0,0,1-.12-1.36,2.23,2.23,0,0,1-2.24,1.54c-1.91,0-2.56-1.63-2.56-3.14,0-1.75.9-3.34,3.62-3.34h1V57c0-.88-.2-1.66-1.25-1.66s-1.25.64-1.35,1.52H80.07c.09-1.65.83-3.22,3.11-3.22,1.76,0,3,.85,3,3.33Zm-1.69-2.2h-1c-1.56,0-1.85.84-1.85,1.61s.36,1.48,1.21,1.48c1.32,0,1.68-1.17,1.68-2.88Z" transform="translate(-0.13)"/><path class="cls-9" d="M88.16,49.61h1.78v5.5a2.32,2.32,0,0,1,2.21-1.43c2,0,3,2.21,3,5,0,3.24-1.08,5.65-3.27,5.65a2,2,0,0,1-2-1.29c0,.37,0,.74,0,1.11H88.13c0-.65,0-2,0-3.06Zm5.18,9.18c0-1.85-.53-3.15-1.73-3.15s-1.76,1.16-1.76,3.29.41,3.49,1.74,3.49S93.34,61,93.34,58.79Z" transform="translate(-0.13)"/><path class="cls-9" d="M96.69,64.17V49.61h1.78V64.17Z" transform="translate(-0.13)"/><path class="cls-9" d="M101.83,59.54c0,1.53.46,2.94,1.69,2.94A1.58,1.58,0,0,0,105,61.1h1.74c-.33,1.56-1.19,3.25-3.28,3.25C101,64.35,100,62,100,59c0-2.54,1-5.34,3.51-5.34s3.31,2.48,3.31,5c0,.11,0,.69,0,.82ZM105.11,58c0-1.35-.45-2.46-1.6-2.46s-1.6,1.44-1.65,2.46Z" transform="translate(-0.13)"/><path class="cls-9" d="M120.09,60c-.29,2.28-1.43,4.42-4,4.42-3.19,0-4.37-3.12-4.37-7.11,0-3.79,1.45-7,4.45-7,2.66,0,3.75,2.21,3.89,4.41h-1.81c-.23-1.3-.67-2.44-2.14-2.44-1.84,0-2.5,2.42-2.5,5s.59,5.16,2.52,5.16c1.44,0,1.93-1.25,2.17-2.46Z" transform="translate(-0.13)"/><path class="cls-9" d="M128.45,58.87c0,3-1,5.48-3.64,5.48s-3.56-2.63-3.56-5.42c0-2.61,1.1-5.25,3.66-5.25C127.32,53.68,128.45,56,128.45,58.87Zm-5.38,0c0,2.25.62,3.6,1.82,3.6s1.75-1.33,1.75-3.59-.59-3.33-1.8-3.33S123.07,56.88,123.07,58.88Z" transform="translate(-0.13)"/><path class="cls-9" d="M130,57.09c0-2.12,0-2.76,0-3.21h1.74c0,.19.06,1,.06,1.43A2.35,2.35,0,0,1,134,53.68c1.56,0,2.46,1.28,2.46,3.78v6.71h-1.79V57.89c0-1.27-.27-2.23-1.3-2.23s-1.57.93-1.57,2.85v5.66H130Z" transform="translate(-0.13)"/><path class="cls-9" d="M144.71,60.68c-.26,2-1.23,3.67-3.31,3.67-2.31,0-3.42-1.94-3.42-5.32,0-3.16,1.29-5.35,3.53-5.35,2.39,0,3.13,2.24,3.19,3.76h-1.78c-.1-1-.48-1.92-1.44-1.92-1.19,0-1.69,1.41-1.69,3.43,0,2.48.61,3.58,1.66,3.58s1.28-.8,1.49-1.85Z" transform="translate(-0.13)"/><path class="cls-9" d="M147.55,59.54c0,1.53.46,2.94,1.69,2.94a1.58,1.58,0,0,0,1.48-1.38h1.75c-.34,1.56-1.2,3.25-3.29,3.25-2.47,0-3.43-2.34-3.43-5.33,0-2.54.95-5.34,3.51-5.34s3.31,2.48,3.31,5c0,.11,0,.69,0,.82ZM150.83,58c0-1.35-.45-2.46-1.6-2.46s-1.6,1.44-1.65,2.46Z" transform="translate(-0.13)"/><path class="cls-9" d="M155.87,63.16v5H154.1V56.88c0-1.4,0-2.34,0-3h1.74c0,.34,0,.93.05,1.46a2.36,2.36,0,0,1,2.3-1.66c1.64,0,2.92,1.68,2.92,5.21s-1.41,5.45-3.27,5.45A2,2,0,0,1,155.87,63.16Zm3.41-4.22c0-2.3-.69-3.3-1.73-3.3-1.35,0-1.76,1.09-1.76,3.41,0,2.08.34,3.37,1.69,3.37C158.64,62.42,159.28,61.2,159.28,58.94Z" transform="translate(-0.13)"/><path class="cls-9" d="M161.79,53.88h1.15V51h1.77v2.85h1.45v1.86h-1.45v5.67c0,.75.14,1.07.78,1.07a2.21,2.21,0,0,0,.51,0v1.66a3.24,3.24,0,0,1-1.17.19c-1.37,0-1.89-.72-1.89-2.57v-6h-1.15Z" transform="translate(-0.13)"/><path class="cls-9" d="M4.48,82v2H.64V82Z" transform="translate(-0.13)"/><path class="cls-9" d="M7.46,84.17c.16,1.43.88,2.26,2,2.26s1.76-.74,1.76-1.9c0-1.34-.56-1.9-2.17-2.53-2.33-.88-3.16-2-3.16-3.94,0-2.42,1.44-3.82,3.41-3.82,2.4,0,3.42,1.73,3.54,3.84H11.06c-.14-1.14-.59-2-1.76-2s-1.54.65-1.54,1.71.53,1.48,2.07,2.08c2.62,1,3.29,2.39,3.29,4.34,0,2.25-1.15,4.08-3.71,4.08-2.23,0-3.64-1.51-3.77-4.16Z" transform="translate(-0.13)"/><path class="cls-9" d="M16.06,83.54c0,1.53.47,2.94,1.69,2.94a1.56,1.56,0,0,0,1.48-1.38H21c-.33,1.56-1.19,3.25-3.29,3.25-2.46,0-3.43-2.34-3.43-5.33,0-2.54,1-5.34,3.51-5.34s3.32,2.48,3.32,5c0,.11,0,.69,0,.82ZM19.34,82c0-1.35-.44-2.46-1.6-2.46s-1.6,1.44-1.65,2.46Z" transform="translate(-0.13)"/><path class="cls-9" d="M22.61,81.07c0-2,0-2.72,0-3.19h1.73c0,.33.06.93.06,1.3a2.33,2.33,0,0,1,2.17-1.5,2,2,0,0,1,1.95,1.66,2.55,2.55,0,0,1,2.32-1.66c1.27,0,2.43.89,2.43,3.56v6.93H31.49V81.63c0-1-.27-2-1.22-2s-1.46,1-1.46,2.61v5.92H27.07V81.54c0-1-.35-1.88-1.22-1.88s-1.48.84-1.48,2.73v5.78H22.61Z" transform="translate(-0.13)"/><path class="cls-9" d="M35.26,73.61h1.79V76H35.26Zm0,4.27h1.79V88.17H35.26Z" transform="translate(-0.13)"/><path class="cls-9" d="M47.12,84c-.29,2.28-1.44,4.42-4,4.42-3.19,0-4.36-3.12-4.36-7.11,0-3.79,1.44-7,4.45-7,2.66,0,3.75,2.21,3.88,4.41h-1.8c-.23-1.3-.68-2.44-2.15-2.44-1.83,0-2.49,2.42-2.49,5s.59,5.16,2.51,5.16c1.45,0,1.94-1.25,2.18-2.46Z" transform="translate(-0.13)"/><path class="cls-9" d="M55.48,82.87c0,3-1,5.48-3.64,5.48s-3.56-2.63-3.56-5.42c0-2.61,1.1-5.25,3.66-5.25C54.34,77.68,55.48,80,55.48,82.87Zm-5.39,0c0,2.25.63,3.6,1.82,3.6s1.76-1.33,1.76-3.59c0-2.11-.59-3.33-1.81-3.33S50.09,80.88,50.09,82.88Z" transform="translate(-0.13)"/><path class="cls-9" d="M57,81.09c0-2.12,0-2.76,0-3.21h1.74c0,.19.07,1,.07,1.43A2.33,2.33,0,0,1,61,77.68c1.57,0,2.47,1.28,2.47,3.78v6.71H61.67V81.89c0-1.27-.27-2.23-1.31-2.23s-1.56.93-1.56,2.85v5.66H57Z" transform="translate(-0.13)"/><path class="cls-9" d="M72,73.61V85.36c0,1.13,0,2.19,0,2.81H70.26c0-.28-.06-.9-.06-1.32A2.08,2.08,0,0,1,68,88.36c-2,0-3-2.18-3-5.32s1.22-5.36,3.32-5.36a1.86,1.86,0,0,1,1.91,1V73.61ZM66.79,83c0,2.12.6,3.46,1.74,3.46,1.45,0,1.73-1.36,1.73-3.5,0-2.42-.43-3.28-1.66-3.28S66.79,80.77,66.79,83Z" transform="translate(-0.13)"/><path class="cls-9" d="M75.36,83.54c0,1.53.46,2.94,1.69,2.94a1.58,1.58,0,0,0,1.48-1.38h1.75c-.34,1.56-1.2,3.25-3.29,3.25-2.47,0-3.43-2.34-3.43-5.33,0-2.54,1-5.34,3.51-5.34s3.31,2.48,3.31,5c0,.11,0,.69,0,.82ZM78.64,82c0-1.35-.45-2.46-1.6-2.46s-1.6,1.44-1.65,2.46Z" transform="translate(-0.13)"/><path class="cls-9" d="M81.91,81.09c0-2.12,0-2.76,0-3.21h1.74c0,.19.06,1,.06,1.43a2.35,2.35,0,0,1,2.21-1.63c1.56,0,2.46,1.28,2.46,3.78v6.71H86.56V81.89c0-1.27-.27-2.23-1.3-2.23s-1.57.93-1.57,2.85v5.66H81.91Z" transform="translate(-0.13)"/><path class="cls-9" d="M91.42,85.07c.11,1,.65,1.54,1.47,1.54a1.12,1.12,0,0,0,1.24-1.23c0-.76-.46-1.1-1.69-1.55-2-.74-2.5-1.68-2.5-3.12a2.75,2.75,0,0,1,2.84-3c2,0,2.83,1.39,2.92,3.07H94c-.08-.65-.35-1.33-1.26-1.33a1,1,0,0,0-1,1.08c0,.62.31.93,1.49,1.34,2.07.71,2.71,1.69,2.71,3.33a2.9,2.9,0,0,1-3,3.18c-1.8,0-3-1.09-3.16-3.28Z" transform="translate(-0.13)"/><path class="cls-9" d="M98.76,83.54c0,1.53.46,2.94,1.69,2.94a1.58,1.58,0,0,0,1.48-1.38h1.74c-.33,1.56-1.19,3.25-3.28,3.25C97.92,88.35,97,86,97,83c0-2.54,1-5.34,3.51-5.34s3.31,2.48,3.31,5c0,.11,0,.69,0,.82ZM102,82c0-1.35-.45-2.46-1.6-2.46s-1.6,1.44-1.65,2.46Z" transform="translate(-0.13)"/><path class="cls-9" d="M111.89,73.61V85.36c0,1.13,0,2.19,0,2.81h-1.74c0-.28-.06-.9-.06-1.32a2.09,2.09,0,0,1-2.23,1.51c-2,0-3-2.18-3-5.32s1.22-5.36,3.32-5.36a1.84,1.84,0,0,1,1.9,1V73.61ZM106.71,83c0,2.12.6,3.46,1.74,3.46,1.45,0,1.73-1.36,1.73-3.5,0-2.42-.43-3.28-1.66-3.28S106.71,80.77,106.71,83Z" transform="translate(-0.13)"/><path class="cls-9" d="M119.12,84.17c.17,1.43.89,2.26,2,2.26s1.76-.74,1.76-1.9c0-1.34-.57-1.9-2.18-2.53-2.32-.88-3.15-2-3.15-3.94,0-2.42,1.44-3.82,3.4-3.82,2.41,0,3.43,1.73,3.54,3.84h-1.8c-.14-1.14-.59-2-1.76-2s-1.54.65-1.54,1.71.53,1.48,2.07,2.08c2.62,1,3.29,2.39,3.29,4.34,0,2.25-1.15,4.08-3.71,4.08-2.23,0-3.64-1.51-3.77-4.16Z" transform="translate(-0.13)"/><path class="cls-9" d="M127.73,83.54c0,1.53.46,2.94,1.69,2.94a1.57,1.57,0,0,0,1.48-1.38h1.75c-.34,1.56-1.19,3.25-3.29,3.25-2.47,0-3.43-2.34-3.43-5.33,0-2.54,1-5.34,3.51-5.34s3.31,2.48,3.31,5c0,.11,0,.69,0,.82ZM131,82c0-1.35-.45-2.46-1.6-2.46s-1.6,1.44-1.65,2.46Z" transform="translate(-0.13)"/><path class="cls-9" d="M134.28,81.07c0-2,0-2.72,0-3.19H136c0,.33.06.93.06,1.3a2.33,2.33,0,0,1,2.17-1.5,2,2,0,0,1,1.95,1.66,2.53,2.53,0,0,1,2.32-1.66c1.27,0,2.43.89,2.43,3.56v6.93h-1.75V81.63c0-1-.27-2-1.22-2s-1.46,1-1.46,2.61v5.92h-1.74V81.54c0-1-.35-1.88-1.22-1.88S136,80.5,136,82.39v5.78h-1.76Z" transform="translate(-0.13)"/><path class="cls-9" d="M146.93,73.61h1.78V76h-1.78Zm0,4.27h1.78V88.17h-1.78Z" transform="translate(-0.13)"/><path class="cls-9" d="M150.74,73.61h1.78v5.5a2.3,2.3,0,0,1,2.21-1.43c2,0,3,2.21,3,5,0,3.24-1.07,5.65-3.26,5.65a2,2,0,0,1-2-1.29q0,.56-.06,1.11h-1.73c0-.65,0-2,0-3.06Zm5.18,9.18c0-1.85-.54-3.15-1.74-3.15s-1.76,1.16-1.76,3.29.42,3.49,1.75,3.49S155.92,85,155.92,82.79Z" transform="translate(-0.13)"/><path class="cls-9" d="M166,82.87c0,3-1,5.48-3.64,5.48s-3.56-2.63-3.56-5.42c0-2.61,1.11-5.25,3.66-5.25S166,80,166,82.87Zm-5.38,0c0,2.25.62,3.6,1.82,3.6s1.75-1.33,1.75-3.59c0-2.11-.59-3.33-1.8-3.33S160.63,80.88,160.63,82.88Z" transform="translate(-0.13)"/><path class="cls-9" d="M167.55,88.17V73.61h1.78V88.17Z" transform="translate(-0.13)"/><path class="cls-9" d="M177.85,73.61V85.36c0,1.13,0,2.19,0,2.81h-1.74c0-.28-.06-.9-.06-1.32a2.08,2.08,0,0,1-2.23,1.51c-2,0-3-2.18-3-5.32s1.22-5.36,3.32-5.36a1.86,1.86,0,0,1,1.91,1V73.61ZM172.67,83c0,2.12.6,3.46,1.74,3.46,1.45,0,1.73-1.36,1.73-3.5,0-2.42-.43-3.28-1.66-3.28S172.67,80.77,172.67,83Z" transform="translate(-0.13)"/></g></g></svg>