<svg xmlns="http://www.w3.org/2000/svg" viewBox="0 0 831.17 727.45"><defs><style>.cls-1{fill:#fff;}.cls-2{fill:none;stroke:#fff;stroke-miterlimit:10;}</style></defs><g id="Layer_2" data-name="Layer 2"><g id="Layer_1-2" data-name="Layer 1"><path class="cls-1" d="M14.57,93q45.93,2.52,62.19,2.52a7.81,7.81,0,0,0,8.39-8.38V72.09H46.59q-17.61,0-25.57-8t-8-25.56v-5q0-17.61,8-25.57T46.59,0h58.84V23.47H53.29q-10,0-10,10.06v3.35q0,10.07,10,10.06H83.47q16.43,0,24.14,7.71t7.71,24.14v8.39q0,16.42-7.71,24.14T83.47,119q-8.55,0-18.11-.34L49.94,118q-17.1-.84-35.37-2.34Z"/><path class="cls-1" d="M179,117.35H148.85V23.47h-35.2V0H214.24V23.47H179Z"/><path class="cls-1" d="M319,117.35H226V0h93V23.47H256.15V46.1H305.6V69.57H256.15V93.88H319Z"/><path class="cls-1" d="M353.38,117.35H320.69L365.12,0h33.53l44.42,117.35H410.38L402.84,96.4H360.93ZM368.47,74.6h26.82L381.88,35.21Z"/><path class="cls-1" d="M516.84,0q18.95,0,28.75,9.81t9.81,28.75V78.79q0,19-9.81,28.76t-28.75,9.8H451.46V0Zm8.38,38.56q0-15.09-15.09-15.09h-28.5V93.88h28.5q15.09,0,15.09-15.09Z"/><path class="cls-1" d="M627.48,117.35H567.13V93.88h15.09V23.47H567.13V0h60.35V23.47H612.39V93.88h15.09Z"/><path class="cls-1" d="M672.75,93.88h61.19v23.47H642.57V0h30.18Z"/><path class="cls-1" d="M712.14,0H744l27.66,57L799.32,0h31.85L786.75,86.34v31H756.57v-31Z"/><path class="cls-1" d="M111.3,240.57a680.89,680.89,0,0,1-72.09,4.19q-16.42,0-24.14-7.71T7.36,212.91V159.26q0-17.59,8-25.56t25.57-8h60.35v23.47H47.59q-10.05,0-10.05,10v53.65a7.8,7.8,0,0,0,8.38,8.38q19.28,0,35.2-.83V196.15H59.33V176h52Z"/><path class="cls-1" d="M128.06,125.74h70.42q17.6,0,25.56,8t8,25.56v15.09q0,13.92-4.61,21.63t-14.67,10.23l21,36.88H201l-19.28-35.21H158.24v35.21H128.06Zm73.77,33.52q0-10-10.06-10H158.24v35.2h33.53q10.06,0,10.06-10.06Z"/><path class="cls-1" d="M354.39,211.24q0,17.59-8,25.56t-25.56,8H279q-17.61,0-25.57-8t-8-25.56V157.59q0-17.61,8-25.57t25.57-8h41.91q17.59,0,25.56,8t8,25.57Zm-30.18-53.65q0-10.07-10.06-10.06h-28.5q-10,0-10.06,10.06v53.65q0,10,10.06,10h28.5q10.07,0,10.06-10Z"/><path class="cls-1" d="M456.32,125.74l20.11,75.44L494,125.74h32.69L494.87,243.09H463L442.9,170.16l-20.11,72.93H390.93L359.08,125.74h32.69l17.6,75.44,20.12-75.44Z"/><path class="cls-1" d="M590.43,243.09H530.08V219.62h15.09V149.21H530.08V125.74h60.35v23.47H575.34v70.41h15.09Z"/><path class="cls-1" d="M707.78,243.09H675.93L635.7,172.68v70.41H605.52V125.74h31.85l40.24,70.41V125.74h30.17Z"/><path class="cls-1" d="M828.49,240.57a680.89,680.89,0,0,1-72.09,4.19q-16.42,0-24.14-7.71t-7.71-24.14V159.26q0-17.59,8-25.56t25.57-8h60.35v23.47H764.78q-10,0-10,10v53.65a7.8,7.8,0,0,0,8.38,8.38q19.27,0,35.2-.83V196.15H776.52V176h52Z"/><path class="cls-2" d="M306.63,251.61,369.94,489l55.39-237.4H528.2L428,620.9H327.74L264.43,391.41,201.12,620.9H100.89L.65,251.61H103.53L158.92,489l63.3-237.4Z"/><path class="cls-1" d="M656.86,620.9H510.46V436.26h146.4v36.92H557.94v35.61h77.81v36.93H557.94V584h98.92Z"/><path class="cls-1" d="M663.19,436.26H768.7q25.84,0,38,11.73t12.14,35.74q0,15.84-6.86,25.72a37,37,0,0,1-16.88,13.85q21.36,5.81,29,28.49a61.87,61.87,0,0,1,2.64,19q0,25.86-12.13,38t-38,12.14H663.19ZM771.34,489q0-15.83-15.83-15.83H710.67v36.93h44.84q15.82,0,15.83-15.82Zm7.91,73.86q0-15.84-15.82-15.83H710.67V584h52.76q15.83,0,15.82-15.83Z"/><path class="cls-1" d="M2.16,627.51H61.29q14.77,0,21.47,6.68t6.68,21.47v14.08q0,14.78-6.68,21.47t-21.47,6.68H27.5v28.16H2.16ZM64.1,655.66q0-8.45-8.44-8.45H27.5v31H55.66q8.45,0,8.44-8.44Z"/><path class="cls-1" d="M165.46,627.51H190.8V699.3q0,14.78-6.69,21.47t-21.47,6.68H130.27q-14.79,0-21.47-6.68t-6.69-21.47V627.51h25.34V699.3q0,8.44,8.45,8.45H157q8.44,0,8.45-8.45Z"/><path class="cls-1" d="M207.69,627.51H264q13.8,0,20.27,6.26t6.48,19.08q0,8.45-3.66,13.72a19.8,19.8,0,0,1-9,7.39q11.4,3.1,15.48,15.2A33,33,0,0,1,295,699.3q0,13.8-6.48,20.27t-20.27,6.48H207.69Zm57.72,28.15q0-8.45-8.45-8.45H233v19.71H257q8.44,0,8.45-8.44Zm4.22,39.42q0-8.45-8.45-8.45H233v19.71h28.15q8.44,0,8.45-8.45Z"/><path class="cls-1" d="M333,706.34h51.38v19.71H307.64V627.51H333Z"/><path class="cls-1" d="M440.67,726.05H390V706.34h12.67V647.21H390v-19.7h50.68v19.7H428v59.13h12.67Z"/><path class="cls-1" d="M450.38,705.63q38.56,2.11,52.22,2.12a6.55,6.55,0,0,0,7-7V688H477.27q-14.79,0-21.47-6.69t-6.69-21.47v-4.22q0-14.77,6.69-21.47t21.47-6.68h49.41v19.7H482.9q-8.44,0-8.45,8.45v2.82q0,8.44,8.45,8.44h25.34q13.78,0,20.27,6.48T535,693.67v7q0,13.8-6.47,20.27t-20.27,6.47q-7.19,0-15.21-.28l-12.95-.56q-14.35-.71-29.7-2Z"/><path class="cls-1" d="M633.52,726.05H608.18V685.93H573v40.12H547.65V627.51H573v38.71h35.19V627.51h25.34Z"/><path class="cls-1" d="M728.54,726.05H650.41V627.51h78.13v19.7H675.75v19h41.53v19.71H675.75v20.41h52.79Z"/><path class="cls-1" d="M739.8,627.51h59.13q14.77,0,21.47,6.68t6.68,21.47v12.67q0,11.68-3.87,18.16t-12.32,8.59l17.6,31H801l-16.19-29.57H765.14v29.57H739.8Zm61.94,28.15q0-8.45-8.44-8.45H765.14v29.57H793.3q8.44,0,8.44-8.45Z"/><path class="cls-1" d="M512.44,424.27l1-1a11.54,11.54,0,0,0,8.81,4.09c4.7,0,7.7-2.55,7.7-6.24,0-3.94-2.47-5.15-5.43-6.49l-4.51-2c-2.55-1.13-6-2.88-6-7.22s3.57-7.1,8.36-7.1a10.84,10.84,0,0,1,8,3.49l-.94,1a9.47,9.47,0,0,0-7.09-3.09c-4.1,0-6.82,2.19-6.82,5.52,0,3.69,3.09,5,5.16,6l4.5,2c3.32,1.5,6.24,3.24,6.24,7.79s-3.65,7.78-9.2,7.78A12.54,12.54,0,0,1,512.44,424.27Z"/><path class="cls-1" d="M546.27,417.17V398.76h1.5v18.09c0,8.07,3.89,10.46,8.15,10.46s8.31-2.39,8.31-10.46V398.76h1.46v18.41c0,9.13-5,11.56-9.77,11.56S546.27,426.3,546.27,417.17Z"/><path class="cls-1" d="M600.45,398.76h7.71c5.88,0,9.61,2.27,9.61,7.14a6.26,6.26,0,0,1-4.66,6.41v.2c3.89.61,6.49,3,6.49,7.14,0,5.6-4.22,8.56-10.91,8.56h-8.24Zm6.82,13.06c6.41,0,8.92-2.19,8.92-5.84,0-4.34-3-5.92-8.64-5.92H602v11.76Zm.89,15.05c6.12,0,9.94-2.19,9.94-7.14,0-4.46-3.65-6.57-9.94-6.57H602v13.71Z"/><path class="cls-1" d="M634.6,398.76h1.5v29.45h-1.5Z"/><path class="cls-1" d="M653.55,398.76h1.58l13,21.46,3.36,5.8h.21c-.17-2.84-.25-5.56-.25-8.32V398.76h1.46v29.45h-1.62l-12.94-21.46L655,401h-.17c.08,2.76.17,5.27.17,8.07v19.19h-1.42Z"/><path class="cls-1" d="M707.73,398.76h7.1c6.69,0,10.55,2.15,10.55,8,0,5.68-3.78,8.44-10.39,8.44h-5.76v13h-1.5Zm6.74,15.13c6.28,0,9.28-2,9.28-7.1s-3.08-6.69-9.45-6.69h-5.07v13.79Z"/><path class="cls-1" d="M744.76,398.76h1.34l10.55,29.45H755l-3.65-10.47H739.45l-3.69,10.47h-1.5Zm-4.86,17.68h11l-2-5.88c-1.26-3.57-2.27-6.57-3.37-10.26h-.16c-1.09,3.69-2.15,6.69-3.4,10.26Z"/><path class="cls-1" d="M770.07,398.76h8.15c5.8,0,9.5,2.15,9.5,7.59,0,4.74-3,7.42-7.87,7.9l8.31,14h-1.74l-8.32-13.87h-6.53v13.87h-1.5ZM777.7,413c5.39,0,8.39-2.15,8.39-6.69s-3-6.25-8.39-6.25h-6.13V413Z"/><path class="cls-1" d="M802.48,398.76H804v16.87h.08L819,398.76h1.9l-9.45,10.79,10.71,18.66h-1.79l-10.05-17.48L804,417.82v10.39h-1.5Z"/></g></g></svg>